<svg width="17" height="11" viewBox="0 0 17 11" fill="none" xmlns="http://www.w3.org/2000/svg">
<path d="M9.25574 11C3.44755 11 0.135864 6.8783 0 0.00880725H2.92108C3.01449 5.04644 5.15435 7.17774 6.85265 7.61809V0.00880725H9.59541V4.35068C11.2682 4.16573 13.0345 2.18415 13.6289 0H16.3631C16.1402 1.13062 15.6948 2.20141 15.0549 3.14546C14.415 4.08952 13.5942 4.88656 12.6439 5.48679C13.7044 6.03426 14.641 6.80868 15.3918 7.759C16.1427 8.70932 16.6908 9.81393 17 11H13.9855C13.3402 8.91273 11.7268 7.29223 9.59541 7.07206V11H9.26424H9.25574Z" fill="#3D3E40"/>
</svg>
