<svg width="20" height="16" viewBox="0 0 20 16" fill="none" xmlns="http://www.w3.org/2000/svg">
<path d="M6.78599 7.18546C6.50843 6.74085 6.01045 6.44444 5.44229 6.44444H3.07692C2.20601 6.44444 1.5 7.14089 1.5 8V13.4444C1.5 14.3036 2.20601 15 3.07692 15H5.44229C6.18299 15 6.80441 14.4962 6.97367 13.8171M6.78599 7.18546C6.93389 7.42237 7.01921 7.70136 7.01921 8V13.4444C7.01921 13.5729 7.00342 13.6977 6.97367 13.8171M6.78599 7.18546C7.70436 6.93382 8.60886 5.98173 8.99197 5.11792L10.3924 1.96031C10.7183 1.22544 11.5449 0.841541 12.3267 1.0619C13.1211 1.28578 13.6185 2.06213 13.4827 2.86596L13.0857 5.21592C13.0056 5.69 13.3762 6.12156 13.8634 6.12156H16.9225C17.9177 6.12156 18.664 7.01962 18.4688 7.98219L17.5619 12.4553C17.3831 13.3375 16.7071 14.0467 15.8174 14.2442C12.6137 14.9555 10.7443 14.805 6.97367 13.8171" stroke="#21AD7B" stroke-width="1.5" stroke-linecap="round"/>
</svg>
