<svg width="22" height="22" viewBox="0 0 22 22" fill="none" xmlns="http://www.w3.org/2000/svg">
<path d="M9 3.5C9 4.88071 11.6863 6 15 6C18.3137 6 21 4.88071 21 3.5M9 3.5C9 2.11929 11.6863 1 15 1C18.3137 1 21 2.11929 21 3.5M9 3.5V7.5M21 3.5V7.5M9 7.5C9 8.88071 11.6863 10 15 10C18.3137 10 21 8.88071 21 7.5M9 7.5V12.1423M21 7.5V11.5M21 11.5C21 12.8807 18.3137 14 15 14C14.2147 14 13.4647 13.9371 12.7773 13.8228M21 11.5V15.5C21 16.8807 18.3137 18 15 18C14.2987 18 13.6256 17.9499 13 17.8577M1 14.5C1 15.8807 3.68629 17 7 17C10.3137 17 13 15.8807 13 14.5M1 14.5C1 13.1193 3.68629 12 7 12C7.70127 12 8.37444 12.0501 9 12.1423M1 14.5V18.5C1 19.8807 3.68629 21 7 21C10.3137 21 13 19.8807 13 18.5V17.8577M13 14.5V17.8577M13 14.5C13 14.2653 12.9224 14.0382 12.7773 13.8228M12.7773 13.8228C12.2494 13.0393 10.828 12.4115 9 12.1423" stroke="#0C5EED" stroke-linecap="round"/>
</svg>
