<svg width="50" height="50" viewBox="0 0 50 50" fill="none" xmlns="http://www.w3.org/2000/svg">
  <path d="M11.3242 38.9013C8.59709 36.1742 6.73989 32.6996 5.98748 28.917C5.23507 25.1343 5.62123 21.2135 7.09714 17.6504C8.57305 14.0872 11.0724 11.0417 14.2792 8.89904C17.4859 6.75635 21.2561 5.6127 25.1128 5.6127C28.9695 5.6127 32.7397 6.75635 35.9464 8.89904C39.1532 11.0417 41.6525 14.0872 43.1284 17.6504C44.6044 21.2135 44.9905 25.1343 44.2381 28.917C43.4857 32.6996 41.6285 36.1742 38.9014 38.9013" stroke="#DBE0E4" stroke-width="5" stroke-linecap="round"/>
  <path d="M11.3242 38.9019C9.05666 36.6343 7.38334 33.8425 6.45246 30.7738C5.52157 27.7051 5.36187 24.4542 5.98748 21.309C6.61309 18.1638 8.00472 15.2215 10.0391 12.7426C12.0735 10.2637 14.6878 8.32482 17.6505 7.09763C20.6132 5.87044 23.8328 5.39286 27.0241 5.70718C30.2155 6.0215 33.2801 7.11802 35.9464 8.89962C38.6128 10.6812 40.7986 13.0929 42.3103 15.921C43.8219 18.7492 44.6128 21.9065 44.6128 25.1133" stroke="#0C5EED" stroke-width="5" stroke-linecap="round"/>
</svg>
