<svg width="262" height="32" viewBox="0 0 262 32" fill="none" xmlns="http://www.w3.org/2000/svg">
<path d="M6.8702 12.6802L6.8842 20.2262L20.2002 15.3522L20.2122 22.8982L0.238196 30.2062L0.200195 7.57216L20.1742 0.26416L20.1882 7.80815L6.8702 12.6802Z" fill="#0C5EED"/>
<path d="M33.5301 18.024L33.5161 10.48L20.2001 15.352L20.1881 7.808L40.1621 0.5L40.2001 23.134L20.2261 30.442L20.2121 22.898L33.5301 18.024Z" fill="#00ADFE"/>
<path d="M65.716 13.3439C67.212 13.3439 68.524 13.4899 69.65 13.7819C70.776 14.0739 71.72 14.4919 72.478 15.0359C73.236 15.5799 73.8 16.23 74.168 16.988C74.556 17.726 74.75 18.552 74.75 19.466C74.75 20.38 74.556 21.2139 74.168 21.9719C73.798 22.7099 73.236 23.3519 72.478 23.8959C71.72 24.4399 70.778 24.858 69.65 25.15C68.522 25.442 67.212 25.588 65.716 25.588H54.932V5.18195H72.42V7.36796H59.158V13.342H65.716V13.3439ZM59.158 15.53V23.4H65.716C67.114 23.4 68.212 23.06 69.01 22.38C69.826 21.68 70.234 20.71 70.234 19.466C70.234 18.222 69.826 17.26 69.01 16.58C68.214 15.88 67.116 15.53 65.716 15.53H59.158Z" fill="#242426"/>
<path d="M81.1681 20.776C81.1681 22.622 82.2861 23.5439 84.5201 23.5439H88.6001V18.006H84.5201C82.2861 18.006 81.1681 18.93 81.1681 20.776ZM88.6001 15.966C88.6001 14.568 88.2301 13.538 87.4921 12.876C86.7741 12.216 85.8301 11.8859 84.6641 11.8859C83.7901 11.8859 82.9341 12.0219 82.1001 12.2939C81.2641 12.5459 80.5161 12.8959 79.8561 13.3439L78.8361 11.5959C79.2641 11.3039 79.7301 11.052 80.2341 10.838C80.7581 10.624 81.2921 10.45 81.8381 10.314C82.3821 10.158 82.9161 10.042 83.4421 9.96395C83.9861 9.88595 84.4921 9.84795 84.9581 9.84795C86.2021 9.84795 87.3001 9.99395 88.2521 10.2859C89.2041 10.5779 90.0101 10.996 90.6721 11.54C91.3341 12.084 91.8281 12.734 92.1581 13.492C92.5081 14.23 92.6821 15.0559 92.6821 15.9699V25.588H84.5221C81.8801 25.588 79.9261 25.1899 78.6641 24.3939C77.4201 23.5979 76.7981 22.392 76.7981 20.78C76.7981 19.168 77.4201 17.962 78.6641 17.166C79.9261 16.37 81.8801 15.9719 84.5221 15.9719H88.6001V15.966ZM112.632 10.428V25.5839H108.552V18.88H100.682V25.5839H96.6021V10.428H100.682V16.84H108.552V10.428H112.632V10.428ZM123.866 19.026H120.806V25.5839H116.726V10.428H120.806V16.9859H123.866L128.384 10.428H132.756L127.656 17.8599L133.048 25.5839H128.384L123.866 19.026ZM139.76 12.4699V23.5459H143.402C144.062 23.5459 144.666 23.448 145.21 23.254C145.774 23.04 146.25 22.71 146.638 22.264C147.046 21.818 147.358 21.2439 147.57 20.5439C147.804 19.8439 147.92 18.9999 147.92 18.0079C147.92 17.0179 147.804 16.1719 147.57 15.4719C147.356 14.7719 147.046 14.2 146.638 13.752C146.25 13.306 145.774 12.984 145.21 12.79C144.666 12.576 144.064 12.4699 143.402 12.4699H139.76ZM143.404 10.428C144.744 10.428 145.96 10.602 147.048 10.952C148.156 11.302 149.098 11.806 149.876 12.468C150.654 13.128 151.246 13.9259 151.654 14.8579C152.082 15.7899 152.296 16.84 152.296 18.006C152.296 19.172 152.082 20.222 151.654 21.154C151.246 22.086 150.654 22.8839 149.876 23.5439C149.1 24.2039 148.156 24.7099 147.048 25.0599C145.96 25.4099 144.746 25.5839 143.404 25.5839H139.762V30.83H135.682V10.428H143.404ZM163.794 24.274C164.416 24.274 164.998 24.158 165.542 23.924C166.086 23.69 166.562 23.3319 166.97 22.8459C167.378 22.3399 167.698 21.6899 167.932 20.8939C168.184 20.0979 168.31 19.1359 168.31 18.0079C168.31 16.8799 168.184 15.9199 167.932 15.1219C167.698 14.3259 167.378 13.6839 166.97 13.1979C166.562 12.6919 166.086 12.324 165.542 12.09C164.998 11.856 164.414 11.74 163.794 11.74C163.172 11.74 162.588 11.856 162.046 12.09C161.502 12.324 161.026 12.6919 160.618 13.1979C160.21 13.6839 159.88 14.3259 159.628 15.1219C159.394 15.9179 159.278 16.8799 159.278 18.0079C159.278 19.1339 159.394 20.0959 159.628 20.8939C159.88 21.6899 160.21 22.3419 160.618 22.8459C161.026 23.3319 161.502 23.692 162.046 23.924C162.588 24.156 163.172 24.274 163.794 24.274ZM163.794 9.84595C165.096 9.84595 166.29 10.03 167.378 10.4C168.486 10.75 169.428 11.274 170.206 11.974C170.982 12.654 171.586 13.51 172.014 14.538C172.46 15.548 172.684 16.704 172.684 18.006C172.684 19.328 172.46 20.494 172.014 21.504C171.586 22.514 170.984 23.37 170.206 24.068C169.428 24.748 168.486 25.262 167.378 25.612C166.29 25.982 165.094 26.166 163.794 26.166C162.472 26.166 161.268 25.982 160.18 25.612C159.092 25.262 158.158 24.748 157.382 24.068C156.604 23.368 155.992 22.514 155.546 21.504C155.118 20.494 154.904 19.328 154.904 18.006C154.904 16.704 155.118 15.548 155.546 14.538C155.992 13.508 156.604 12.654 157.382 11.974C158.158 11.274 159.092 10.75 160.18 10.4C161.268 10.03 162.472 9.84595 163.794 9.84595ZM189.732 12.4699H183.612V25.5859H179.532V12.4699H173.412V10.43H189.734V12.4699H189.732ZM199.344 9.84595C199.966 9.84595 200.588 9.90395 201.21 10.0199C201.832 10.1179 202.424 10.2619 202.988 10.4579C203.57 10.6319 204.106 10.856 204.592 11.128C205.098 11.4 205.534 11.7019 205.904 12.0319L204.738 13.78C203.942 13.178 203.126 12.7119 202.29 12.3819C201.474 12.0519 200.59 11.8859 199.638 11.8859C198.938 11.8859 198.298 12.0019 197.714 12.2359C197.132 12.4499 196.626 12.81 196.198 13.314C195.772 13.8 195.43 14.4319 195.178 15.2079C194.944 15.9859 194.828 16.918 194.828 18.006C194.828 19.094 194.944 20.026 195.178 20.804C195.43 21.582 195.78 22.222 196.228 22.728C196.676 23.214 197.21 23.574 197.832 23.806C198.474 24.02 199.172 24.126 199.93 24.126C200.882 24.126 201.766 23.96 202.582 23.63C203.418 23.3 204.234 22.8339 205.03 22.2319L206.196 23.98C205.828 24.31 205.39 24.6119 204.884 24.8839C204.398 25.1559 203.864 25.3899 203.28 25.5839C202.716 25.7579 202.124 25.894 201.502 25.992C200.88 26.108 200.26 26.166 199.636 26.166C198.256 26.166 196.994 25.982 195.848 25.612C194.722 25.262 193.76 24.748 192.962 24.068C192.166 23.368 191.544 22.514 191.096 21.504C190.67 20.494 190.454 19.328 190.454 18.006C190.454 16.704 190.668 15.548 191.096 14.538C191.544 13.508 192.156 12.654 192.932 11.974C193.71 11.274 194.642 10.75 195.73 10.4C196.818 10.03 198.022 9.84595 199.344 9.84595ZM223.26 12.4699H217.14V25.5859H213.06V12.4699H206.94V10.43H223.262V12.4699H223.26ZM240.458 14.654C240.458 15.392 240.186 16.0239 239.642 16.5479C239.118 17.0719 238.272 17.412 237.106 17.568C238.504 17.782 239.554 18.2279 240.254 18.9079C240.974 19.5679 241.332 20.3359 241.332 21.2099C241.332 21.8319 241.186 22.4139 240.894 22.9579C240.622 23.4819 240.194 23.94 239.612 24.328C239.03 24.716 238.292 25.0279 237.396 25.2599C236.502 25.4739 235.434 25.58 234.19 25.58H225.592V10.424H233.316C234.56 10.424 235.628 10.54 236.522 10.774C237.416 10.988 238.154 11.288 238.738 11.678C239.32 12.048 239.748 12.494 240.02 13.018C240.312 13.528 240.458 14.072 240.458 14.654ZM234.192 23.5439C235.066 23.5439 235.746 23.32 236.232 22.874C236.718 22.428 236.96 21.874 236.96 21.212C236.96 20.552 236.718 19.998 236.232 19.55C235.746 19.102 235.066 18.88 234.192 18.88H229.674V23.5439H234.192V23.5439ZM233.318 16.84C234.192 16.84 234.872 16.6259 235.358 16.1979C235.844 15.7519 236.086 15.236 236.086 14.654C236.086 14.072 235.844 13.566 235.358 13.138C234.872 12.692 234.192 12.468 233.318 12.468H229.674V16.84H233.318V16.84ZM252.71 24.274C253.332 24.274 253.916 24.158 254.458 23.924C255.002 23.69 255.478 23.3319 255.886 22.8459C256.294 22.3399 256.614 21.6899 256.848 20.8939C257.1 20.0979 257.226 19.1359 257.226 18.0079C257.226 16.8799 257.1 15.9199 256.848 15.1219C256.614 14.3259 256.294 13.6839 255.886 13.1979C255.478 12.6919 255.002 12.324 254.458 12.09C253.914 11.856 253.332 11.74 252.71 11.74C252.088 11.74 251.506 11.856 250.962 12.09C250.418 12.324 249.942 12.6919 249.534 13.1979C249.126 13.6839 248.796 14.3259 248.544 15.1219C248.31 15.9179 248.194 16.8799 248.194 18.0079C248.194 19.1339 248.31 20.0959 248.544 20.8939C248.796 21.6899 249.126 22.3419 249.534 22.8459C249.942 23.3319 250.418 23.692 250.962 23.924C251.506 24.156 252.09 24.274 252.71 24.274ZM252.71 9.84595C254.012 9.84595 255.208 10.03 256.294 10.4C257.402 10.75 258.344 11.274 259.122 11.974C259.9 12.654 260.502 13.51 260.93 14.538C261.378 15.548 261.6 16.704 261.6 18.006C261.6 19.328 261.378 20.494 260.93 21.504C260.504 22.514 259.9 23.37 259.122 24.068C258.346 24.748 257.402 25.262 256.294 25.612C255.206 25.982 254.012 26.166 252.71 26.166C251.39 26.166 250.184 25.982 249.096 25.612C248.008 25.262 247.076 24.748 246.298 24.068C245.522 23.368 244.91 22.514 244.462 21.504C244.036 20.494 243.82 19.328 243.82 18.006C243.82 16.704 244.034 15.548 244.462 14.538C244.91 13.508 245.522 12.654 246.298 11.974C247.076 11.274 248.008 10.75 249.096 10.4C250.186 10.03 251.39 9.84595 252.71 9.84595Z" fill="#242426"/>
</svg>
