<svg width="50" height="55" viewBox="0 0 50 55" fill="none" xmlns="http://www.w3.org/2000/svg">
<path d="M36.6071 0H9.375V54.4643H50V13.3929L36.6071 0Z" fill="#EAEDF1"/>
<rect y="25.4465" width="36.6071" height="20.0893" fill="#F15642"/>
<path d="M36.6072 13.3929V0L50.0001 13.3929H36.6072Z" fill="#C4C8D2"/>
<path d="M5.51025 40.1785V30.7366H9.70222C10.7379 30.7366 11.5281 30.9866 12.0728 31.4866C12.6174 31.9866 12.8897 32.6741 12.8897 33.5491C12.8897 34.4151 12.6174 35.1026 12.0728 35.6116C11.5281 36.1205 10.7379 36.375 9.70222 36.375H7.23793V40.1785H5.51025ZM7.23793 35.0089H9.50133C10.0728 35.0089 10.5013 34.8839 10.787 34.6339C11.0728 34.375 11.2156 34.0134 11.2156 33.5491C11.2156 33.0848 11.0728 32.7276 10.787 32.4776C10.5013 32.2187 10.0728 32.0893 9.50133 32.0893H7.23793V35.0089Z" fill="white"/>
<path d="M14.8319 40.1785V30.7366H18.2605C19.3408 30.7366 20.2515 30.9241 20.9926 31.2991C21.7426 31.6651 22.3096 32.2009 22.6935 32.9062C23.0774 33.6026 23.2694 34.4509 23.2694 35.4509C23.2694 36.4419 23.0774 37.2901 22.6935 37.9955C22.3096 38.7009 21.7426 39.241 20.9926 39.616C20.2515 39.991 19.3408 40.1785 18.2605 40.1785H14.8319ZM16.5596 38.7455H18.1533C19.2962 38.7455 20.1444 38.4732 20.698 37.9285C21.2515 37.3839 21.5283 36.558 21.5283 35.4509C21.5283 34.3348 21.2515 33.5089 20.698 32.9732C20.1444 32.4285 19.2962 32.1562 18.1533 32.1562H16.5596V38.7455Z" fill="white"/>
<path d="M25.4353 40.1785V30.7366H31.6629V32.0893H27.1629V34.7678H31.3549V36.1205H27.1629V40.1785H25.4353Z" fill="white"/>
</svg>
