<svg width="22" height="20" viewBox="0 0 22 20" fill="none" xmlns="http://www.w3.org/2000/svg">
<path d="M1 6.42871C1 5.32414 1.89543 4.42871 3 4.42871H19C20.1046 4.42871 21 5.32414 21 6.42871V8.08347C21 8.96669 20.4207 9.74534 19.5747 9.99913L12.1494 12.2267C11.3996 12.4516 10.6004 12.4516 9.85061 12.2267L2.42531 9.99913C1.57934 9.74534 1 8.96669 1 8.08347V6.42871Z" stroke="#0C5EED"/>
<path d="M11 9.5717L11 7.85742" stroke="#0C5EED" stroke-linecap="round" stroke-linejoin="round"/>
<path d="M1.83398 9.57129L1.83398 14.9998C1.83398 17.2089 3.62485 18.9998 5.83399 18.9998H16.1673C18.3765 18.9998 20.1673 17.2089 20.1673 14.9998V9.57129" stroke="#0C5EED"/>
<path d="M14.3327 4.42855V3C14.3327 1.89543 13.4373 1 12.3327 1H9.66602C8.56145 1 7.66602 1.89543 7.66602 3L7.66602 4.42855" stroke="#0C5EED"/>
</svg>
