<svg width="22" height="22" viewBox="0 0 22 22" fill="none" xmlns="http://www.w3.org/2000/svg">
<path d="M6.75162 20.5592L6.55167 21.0174L6.75162 20.5592ZM20.7513 15.0558L21.2096 15.2558L20.7513 15.0558ZM20.8989 14.7L21.3642 14.883L20.8989 14.7ZM7.10814 20.707L6.92506 21.1723L7.10814 20.707ZM14.8919 20.707L14.7088 20.2417L14.8919 20.707ZM15.4484 0.598803C15.3251 0.544991 15.2006 0.493347 15.0749 0.443919L14.7088 1.37447C14.8231 1.41943 14.9363 1.46641 15.0485 1.51536L15.4484 0.598803ZM21.3642 6.73317C21.3147 6.60745 21.263 6.48285 21.2092 6.35943L20.2926 6.75935C20.3416 6.87163 20.3886 6.98497 20.4336 7.09932L21.3642 6.73317ZM21.2096 15.2558C21.2633 15.1327 21.3149 15.0084 21.3642 14.883L20.4336 14.5169C20.3888 14.6309 20.3419 14.7439 20.293 14.8559L21.2096 15.2558ZM15.0749 21.1723C15.2004 21.1229 15.3248 21.0713 15.448 21.0176L15.0481 20.101C14.936 20.1499 14.8229 20.1968 14.7088 20.2417L15.0749 21.1723ZM6.55167 21.0174C6.67498 21.0712 6.79946 21.1229 6.92506 21.1723L7.29121 20.2417C7.17697 20.1968 7.06374 20.1498 6.95156 20.1009L6.55167 21.0174ZM0.635811 14.883C0.685192 15.0085 0.736786 15.1329 0.790543 15.2562L1.70712 14.8563C1.65821 14.7442 1.61128 14.631 1.56637 14.5169L0.635811 14.883ZM0.790693 6.35971C0.736883 6.48304 0.68524 6.60754 0.635814 6.73315L1.56637 7.0993C1.61133 6.98505 1.6583 6.8718 1.70725 6.75961L0.790693 6.35971ZM6.92506 0.443916C6.79935 0.49338 6.67475 0.545063 6.55133 0.598917L6.95125 1.51547C7.06353 1.46648 7.17686 1.41946 7.2912 1.37447L6.92506 0.443916ZM4.96182 4.77016C5.24758 4.48441 5.45072 4.13458 5.61257 3.79524C5.77128 3.46249 5.91244 3.0889 6.0405 2.78011C6.3225 2.10017 6.56819 1.68261 6.95125 1.51547L6.55133 0.598917C5.75419 0.946736 5.38363 1.75362 5.11679 2.39702C4.97044 2.74991 4.85404 3.06271 4.70998 3.36474C4.56906 3.6602 4.42422 3.89355 4.25471 4.06306L4.96182 4.77016ZM1.70725 6.75961C1.87438 6.37655 2.29192 6.13085 2.97184 5.84885C3.28061 5.72078 3.65419 5.57962 3.98693 5.4209C4.32626 5.25905 4.67607 5.05591 4.96182 4.77016L4.25471 4.06306C4.08522 4.23255 3.85186 4.3774 3.55642 4.51832C3.25439 4.66238 2.9416 4.77879 2.58872 4.92515C1.94534 5.19199 1.13848 5.56257 0.790693 6.35971L1.70725 6.75961ZM2.4614 10.8081C2.4614 10.4038 2.35755 10.0126 2.23193 9.65811C2.10875 9.31048 1.94423 8.94635 1.81636 8.6374C1.53475 7.95701 1.41336 7.48816 1.56637 7.0993L0.635814 6.73315C0.317149 7.54303 0.625911 8.37602 0.892374 9.01983C1.03854 9.37299 1.17754 9.67654 1.28936 9.99211C1.39874 10.3008 1.4614 10.5683 1.4614 10.8081H2.4614ZM1.56637 14.5169C1.41336 14.128 1.53475 13.6592 1.81636 12.9788C1.94423 12.6698 2.10875 12.3057 2.23193 11.9581C2.35755 11.6036 2.4614 11.2124 2.4614 10.8081H1.4614C1.4614 11.0479 1.39874 11.3154 1.28936 11.6241C1.17754 11.9397 1.03854 12.2432 0.892373 12.5964C0.625909 13.2402 0.317147 14.0732 0.635811 14.883L1.56637 14.5169ZM4.96206 16.8458C4.67629 16.56 4.32643 16.3569 3.98706 16.195C3.65428 16.0363 3.28065 15.8951 2.97184 15.7671C2.29182 15.4851 1.87424 15.2394 1.70712 14.8563L0.790543 15.2562C1.13834 16.0534 1.94531 16.424 2.58877 16.6908C2.94169 16.8372 3.25452 16.9536 3.55658 17.0976C3.85207 17.2386 4.08544 17.3834 4.25495 17.5529L4.96206 16.8458ZM6.95156 20.1009C6.56847 19.9337 6.32277 19.5161 6.04078 18.8361C5.91271 18.5273 5.77156 18.1536 5.61284 17.8208C5.45099 17.4815 5.24784 17.1316 4.96206 16.8458L4.25495 17.5529C4.42446 17.7224 4.56931 17.9558 4.71023 18.2513C4.85429 18.5534 4.9707 18.8662 5.11705 19.2191C5.38388 19.8626 5.75445 20.6696 6.55167 21.0174L6.95156 20.1009ZM17.0377 16.8455C16.7519 17.1313 16.5487 17.4812 16.3869 17.8207C16.2282 18.1535 16.087 18.5272 15.9589 18.8361C15.6769 19.5162 15.4312 19.9339 15.0481 20.101L15.448 21.0176C16.2453 20.6698 16.6159 19.8626 16.8827 19.2191C17.029 18.8661 17.1454 18.5532 17.2895 18.2511C17.4304 17.9556 17.5753 17.7221 17.7448 17.5526L17.0377 16.8455ZM20.293 14.8559C20.1259 15.239 19.7083 15.4847 19.0282 15.7668C18.7193 15.8948 18.3456 16.036 18.0128 16.1947C17.6734 16.3566 17.3235 16.5597 17.0377 16.8455L17.7448 17.5526C17.9143 17.3831 18.1477 17.2383 18.4432 17.0973C18.7453 16.9533 19.0582 16.8369 19.4112 16.6905C20.0547 16.4236 20.8618 16.0531 21.2096 15.2558L20.293 14.8559ZM19.5386 10.8081C19.5386 11.2124 19.6424 11.6036 19.7681 11.9581C19.8912 12.3057 20.0558 12.6698 20.1836 12.9788C20.4652 13.6592 20.5866 14.128 20.4336 14.5169L21.3642 14.883C21.6828 14.0732 21.3741 13.2402 21.1076 12.5964C20.9615 12.2432 20.8225 11.9397 20.7106 11.6241C20.6013 11.3154 20.5386 11.0479 20.5386 10.8081H19.5386ZM17.0379 4.76993C17.3237 5.05568 17.6735 5.25882 18.0129 5.42067C18.3456 5.57938 18.7192 5.72054 19.028 5.8486C19.7079 6.13059 20.1255 6.37629 20.2926 6.75935L21.2092 6.35943C20.8614 5.56229 20.0545 5.19173 19.4111 4.92489C19.0582 4.77854 18.7454 4.66214 18.4434 4.51808C18.1479 4.37716 17.9145 4.23232 17.745 4.06282L17.0379 4.76993ZM11 19.3467C10.5957 19.3467 10.2045 19.4505 9.85001 19.5762C9.50239 19.6994 9.13825 19.8639 8.82931 19.9917C8.14891 20.2733 7.68007 20.3947 7.29121 20.2417L6.92506 21.1723C7.73494 21.491 8.56793 21.1822 9.21173 20.9157C9.56489 20.7696 9.86845 20.6306 10.184 20.5187C10.4927 20.4094 10.7602 20.3467 11 20.3467V19.3467ZM15.0485 1.51536C15.4316 1.68249 15.6773 2.10003 15.9593 2.77995C16.0873 3.08871 16.2285 3.46229 16.3872 3.79504C16.5491 4.13436 16.7522 4.48418 17.0379 4.76993L17.745 4.06282C17.5755 3.89332 17.4307 3.65997 17.2898 3.36452C17.1457 3.0625 17.0293 2.74971 16.883 2.39683C16.6161 1.75345 16.2455 0.946596 15.4484 0.598803L15.0485 1.51536ZM11 2.2695C11.4043 2.2695 11.7955 2.16566 12.15 2.04004C12.4976 1.91685 12.8618 1.75233 13.1707 1.62447C13.8511 1.34286 14.3199 1.22147 14.7088 1.37447L15.0749 0.443919C14.2651 0.125254 13.4321 0.434016 12.7883 0.70048C12.4351 0.846647 12.1316 0.985641 11.816 1.09746C11.5073 1.20685 11.2398 1.2695 11 1.2695V2.2695ZM20.4336 7.09932C20.5866 7.48817 20.4652 7.95702 20.1836 8.63741C20.0558 8.94635 19.8912 9.31049 19.7681 9.65811C19.6424 10.0126 19.5386 10.4038 19.5386 10.8081H20.5386C20.5386 10.5683 20.6013 10.3008 20.7106 9.99212C20.8225 9.67655 20.9615 9.373 21.1076 9.01984C21.3741 8.37603 21.6828 7.54304 21.3642 6.73317L20.4336 7.09932ZM14.7088 20.2417C14.3199 20.3947 13.8511 20.2733 13.1707 19.9917C12.8617 19.8639 12.4976 19.6994 12.15 19.5762C11.7955 19.4505 11.4043 19.3467 11 19.3467V20.3467C11.2398 20.3467 11.5073 20.4094 11.816 20.5187C12.1315 20.6306 12.4351 20.7696 12.7883 20.9157C13.4321 21.1822 14.2651 21.491 15.0749 21.1723L14.7088 20.2417ZM11 1.2695C10.7602 1.2695 10.4927 1.20685 10.184 1.09746C9.86845 0.985641 9.56489 0.846646 9.21173 0.700479C8.56792 0.434014 7.73493 0.125252 6.92506 0.443916L7.2912 1.37447C7.68007 1.22147 8.14891 1.34286 8.82931 1.62446C9.13825 1.75233 9.50239 1.91685 9.85001 2.04004C10.2045 2.16566 10.5957 2.2695 11 2.2695V1.2695Z" fill="#0C5EED"/>
<circle cx="8.4819" cy="8.28981" r="0.791538" transform="rotate(45 8.4819 8.28981)" fill="#0C5EED"/>
<circle cx="12.8849" cy="12.6926" r="0.791538" transform="rotate(45 12.8849 12.6926)" fill="#0C5EED"/>
<path d="M8.61955 13.1886L13.3809 8.42725" stroke="#0C5EED" stroke-linecap="round" stroke-linejoin="round"/>
</svg>
