<svg width="18" height="21" viewBox="0 0 18 21" fill="none" xmlns="http://www.w3.org/2000/svg">
<path d="M16.5 8.91667C16.5 11.4522 14.9925 14.1084 13.221 16.1677C12.3426 17.1887 11.4191 18.0395 10.6262 18.6306C10.2292 18.9266 9.87304 19.1514 9.57823 19.2998C9.26766 19.4562 9.07917 19.5 9 19.5V20.5C9.32083 20.5 9.68235 20.367 10.028 20.193C10.3895 20.0109 10.7958 19.7515 11.2238 19.4324C12.0809 18.7935 13.0574 17.8912 13.979 16.8198C15.8075 14.6944 17.5 11.809 17.5 8.91667H16.5ZM9 19.5C8.92083 19.5 8.73235 19.4562 8.42177 19.2998C8.12696 19.1514 7.7708 18.9266 7.37384 18.6306C6.58086 18.0395 5.65736 17.1887 4.77904 16.1677C3.00752 14.1084 1.5 11.4522 1.5 8.91667H0.5C0.5 11.809 2.19248 14.6944 4.02096 16.8198C4.94264 17.8912 5.91914 18.7935 6.77616 19.4324C7.20421 19.7515 7.61054 20.0109 7.97198 20.193C8.31766 20.367 8.67917 20.5 9 20.5V19.5ZM1.5 8.91667C1.5 4.82548 4.85292 1.5 9 1.5V0.5C4.31053 0.5 0.5 4.26335 0.5 8.91667H1.5ZM9 1.5C13.1471 1.5 16.5 4.82548 16.5 8.91667H17.5C17.5 4.26335 13.6895 0.5 9 0.5V1.5Z" fill="#686C77"/>
<circle r="3" transform="matrix(-1 0 0 1 9 8.5)" stroke="#686C77"/>
</svg>
