<svg width="16" height="11" viewBox="0 0 16 11" fill="none" xmlns="http://www.w3.org/2000/svg">
<path d="M15.6 1.66964C15.4 0.982144 14.9 0.491072 14.2 0.294643C13 1.75621e-07 7.89999 0 7.89999 0C7.89999 0 2.90001 1.75621e-07 1.60001 0.294643C0.900006 0.491072 0.399997 0.982144 0.199997 1.66964C-3.05474e-06 2.94643 0 5.5 0 5.5C0 5.5 3.03984e-06 8.05357 0.300003 9.33036C0.500003 10.0179 0.999997 10.5089 1.7 10.7054C2.9 11 8 11 8 11C8 11 13 11 14.3 10.7054C15 10.5089 15.5 10.0179 15.7 9.33036C16 8.05357 16 5.5 16 5.5C16 5.5 16 2.94643 15.6 1.66964ZM6.39999 7.85714V3.14286L10.6 5.5L6.39999 7.85714Z" fill="#3D3E40"/>
</svg>
