<svg width="30" height="43" viewBox="0 0 30 43" fill="none" xmlns="http://www.w3.org/2000/svg">
<path d="M0 0H30V43L15 38L0 43V0Z" fill="#0C5EED"/>
<path d="M14.4046 18.0611C14.6185 17.6273 15.2371 17.6273 15.451 18.0611L17.0996 21.4045L20.7737 21.9526C21.2492 22.0235 21.4396 22.6068 21.0975 22.9446L18.4418 25.5671L19.0596 29.256C19.1394 29.7319 18.6397 30.0933 18.2126 29.8686L14.9278 28.1397L11.643 29.8686C11.216 30.0933 10.7163 29.7319 10.796 29.256L11.4138 25.5671L8.75807 22.9446C8.41601 22.6068 8.60642 22.0235 9.08188 21.9526L12.756 21.4045L14.4046 18.0611Z" fill="white"/>
</svg>
