<svg width="769" height="643" viewBox="0 0 769 643" fill="none" xmlns="http://www.w3.org/2000/svg">
<path d="M147.361 209.162C146.497 209.162 145.741 208.976 145.093 208.604C144.457 208.22 143.965 207.68 143.617 206.984C143.269 206.276 143.095 205.442 143.095 204.482C143.095 203.51 143.269 202.676 143.617 201.98C143.965 201.284 144.457 200.75 145.093 200.378C145.741 199.994 146.497 199.802 147.361 199.802C148.237 199.802 148.993 199.994 149.629 200.378C150.277 200.75 150.775 201.284 151.123 201.98C151.483 202.676 151.663 203.51 151.663 204.482C151.663 205.442 151.483 206.276 151.123 206.984C150.775 207.68 150.277 208.22 149.629 208.604C148.993 208.976 148.237 209.162 147.361 209.162ZM147.361 207.974C148.225 207.974 148.909 207.68 149.413 207.092C149.917 206.492 150.169 205.622 150.169 204.482C150.169 203.33 149.911 202.46 149.395 201.872C148.891 201.272 148.213 200.972 147.361 200.972C146.509 200.972 145.831 201.272 145.327 201.872C144.823 202.46 144.571 203.33 144.571 204.482C144.571 205.622 144.823 206.492 145.327 207.092C145.831 207.68 146.509 207.974 147.361 207.974ZM155.966 209V201.134H152.69V199.964H160.718V201.134H157.424V209H155.966ZM165.219 209.162C164.451 209.162 163.725 209.06 163.041 208.856C162.369 208.64 161.817 208.346 161.385 207.974L161.889 206.948C162.333 207.308 162.831 207.584 163.383 207.776C163.947 207.956 164.559 208.046 165.219 208.046C166.107 208.046 166.749 207.908 167.145 207.632C167.541 207.356 167.739 206.966 167.739 206.462C167.739 205.97 167.571 205.598 167.235 205.346C166.899 205.082 166.407 204.95 165.759 204.95H163.635V203.87H165.579C166.155 203.87 166.605 203.744 166.929 203.492C167.265 203.228 167.433 202.868 167.433 202.412C167.433 201.944 167.253 201.578 166.893 201.314C166.533 201.038 165.969 200.9 165.201 200.9C164.589 200.9 164.019 200.984 163.491 201.152C162.975 201.308 162.483 201.56 162.015 201.908L161.529 200.918C162.021 200.534 162.591 200.252 163.239 200.072C163.887 199.892 164.589 199.802 165.345 199.802C166.473 199.802 167.331 200.024 167.919 200.468C168.507 200.9 168.801 201.518 168.801 202.322C168.801 202.886 168.609 203.372 168.225 203.78C167.841 204.176 167.331 204.41 166.695 204.482V204.266C167.415 204.29 167.997 204.506 168.441 204.914C168.885 205.322 169.107 205.856 169.107 206.516C169.107 207.32 168.777 207.962 168.117 208.442C167.469 208.922 166.503 209.162 165.219 209.162ZM171.372 209V199.964H172.83V203.204H175.548C176.712 203.204 177.588 203.456 178.176 203.96C178.776 204.452 179.076 205.154 179.076 206.066C179.076 206.678 178.938 207.206 178.662 207.65C178.398 208.082 178.002 208.418 177.474 208.658C176.958 208.886 176.316 209 175.548 209H171.372ZM172.83 207.956H175.422C176.154 207.956 176.712 207.806 177.096 207.506C177.48 207.194 177.672 206.72 177.672 206.084C177.672 205.448 177.48 204.986 177.096 204.698C176.724 204.398 176.166 204.248 175.422 204.248H172.83V207.956ZM180.444 209V199.964H181.884V209H180.444ZM184.766 209V199.964H189.122C190.166 199.964 190.946 200.168 191.462 200.576C191.99 200.972 192.254 201.56 192.254 202.34C192.254 202.916 192.05 203.402 191.642 203.798C191.246 204.182 190.73 204.41 190.094 204.482V204.266C190.838 204.29 191.432 204.506 191.876 204.914C192.32 205.322 192.542 205.85 192.542 206.498C192.542 207.278 192.254 207.89 191.678 208.334C191.114 208.778 190.31 209 189.266 209H184.766ZM186.152 208.01H189.194C189.83 208.01 190.316 207.878 190.652 207.614C191 207.338 191.174 206.948 191.174 206.444C191.174 205.94 191 205.556 190.652 205.292C190.316 205.028 189.83 204.896 189.194 204.896H186.152V208.01ZM186.152 203.906H189.032C189.62 203.906 190.076 203.774 190.4 203.51C190.724 203.246 190.886 202.88 190.886 202.412C190.886 201.944 190.724 201.584 190.4 201.332C190.076 201.068 189.62 200.936 189.032 200.936H186.152V203.906ZM198.583 209.162C197.719 209.162 196.963 208.976 196.315 208.604C195.679 208.22 195.187 207.68 194.839 206.984C194.491 206.276 194.317 205.442 194.317 204.482C194.317 203.51 194.491 202.676 194.839 201.98C195.187 201.284 195.679 200.75 196.315 200.378C196.963 199.994 197.719 199.802 198.583 199.802C199.459 199.802 200.215 199.994 200.851 200.378C201.499 200.75 201.997 201.284 202.345 201.98C202.705 202.676 202.885 203.51 202.885 204.482C202.885 205.442 202.705 206.276 202.345 206.984C201.997 207.68 201.499 208.22 200.851 208.604C200.215 208.976 199.459 209.162 198.583 209.162ZM198.583 207.974C199.447 207.974 200.131 207.68 200.635 207.092C201.139 206.492 201.391 205.622 201.391 204.482C201.391 203.33 201.133 202.46 200.617 201.872C200.113 201.272 199.435 200.972 198.583 200.972C197.731 200.972 197.053 201.272 196.549 201.872C196.045 202.46 195.793 203.33 195.793 204.482C195.793 205.622 196.045 206.492 196.549 207.092C197.053 207.68 197.731 207.974 198.583 207.974ZM205.262 209V199.964H209.618C210.662 199.964 211.442 200.168 211.958 200.576C212.486 200.972 212.75 201.56 212.75 202.34C212.75 202.916 212.546 203.402 212.138 203.798C211.742 204.182 211.226 204.41 210.59 204.482V204.266C211.334 204.29 211.928 204.506 212.372 204.914C212.816 205.322 213.038 205.85 213.038 206.498C213.038 207.278 212.75 207.89 212.174 208.334C211.61 208.778 210.806 209 209.762 209H205.262ZM206.648 208.01H209.69C210.326 208.01 210.812 207.878 211.148 207.614C211.496 207.338 211.67 206.948 211.67 206.444C211.67 205.94 211.496 205.556 211.148 205.292C210.812 205.028 210.326 204.896 209.69 204.896H206.648V208.01ZM206.648 203.906H209.528C210.116 203.906 210.572 203.774 210.896 203.51C211.22 203.246 211.382 202.88 211.382 202.412C211.382 201.944 211.22 201.584 210.896 201.332C210.572 201.068 210.116 200.936 209.528 200.936H206.648V203.906Z" fill="#686C77"/>
<path d="M111.58 174V172.14L119.08 164.31C120.06 163.29 120.79 162.32 121.27 161.4C121.77 160.46 122.02 159.49 122.02 158.49C122.02 157.27 121.64 156.35 120.88 155.73C120.12 155.09 119.02 154.77 117.58 154.77C116.46 154.77 115.42 154.97 114.46 155.37C113.52 155.75 112.61 156.36 111.73 157.2L110.83 155.25C111.63 154.45 112.65 153.81 113.89 153.33C115.13 152.83 116.44 152.58 117.82 152.58C119.96 152.58 121.61 153.08 122.77 154.08C123.93 155.06 124.51 156.46 124.51 158.28C124.51 159.62 124.18 160.9 123.52 162.12C122.88 163.32 121.94 164.56 120.7 165.84L114.07 172.56V171.87H125.41V174H111.58ZM145.611 174.27C143.211 174.27 141.371 173.34 140.091 171.48C138.811 169.62 138.171 166.93 138.171 163.41C138.171 159.87 138.811 157.18 140.091 155.34C141.371 153.5 143.211 152.58 145.611 152.58C148.031 152.58 149.871 153.5 151.131 155.34C152.411 157.18 153.051 159.86 153.051 163.38C153.051 166.92 152.411 169.62 151.131 171.48C149.851 173.34 148.011 174.27 145.611 174.27ZM145.611 172.11C147.291 172.11 148.541 171.4 149.361 169.98C150.181 168.56 150.591 166.36 150.591 163.38C150.591 160.38 150.181 158.19 149.361 156.81C148.541 155.41 147.291 154.71 145.611 154.71C143.951 154.71 142.701 155.41 141.861 156.81C141.041 158.21 140.631 160.4 140.631 163.38C140.631 166.36 141.041 168.56 141.861 169.98C142.701 171.4 143.951 172.11 145.611 172.11ZM164.499 174.27C162.099 174.27 160.259 173.34 158.979 171.48C157.699 169.62 157.059 166.93 157.059 163.41C157.059 159.87 157.699 157.18 158.979 155.34C160.259 153.5 162.099 152.58 164.499 152.58C166.919 152.58 168.759 153.5 170.019 155.34C171.299 157.18 171.939 159.86 171.939 163.38C171.939 166.92 171.299 169.62 170.019 171.48C168.739 173.34 166.899 174.27 164.499 174.27ZM164.499 172.11C166.179 172.11 167.429 171.4 168.249 169.98C169.069 168.56 169.479 166.36 169.479 163.38C169.479 160.38 169.069 158.19 168.249 156.81C167.429 155.41 166.179 154.71 164.499 154.71C162.839 154.71 161.589 155.41 160.749 156.81C159.929 158.21 159.519 160.4 159.519 163.38C159.519 166.36 159.929 168.56 160.749 169.98C161.589 171.4 162.839 172.11 164.499 172.11ZM183.387 174.27C180.987 174.27 179.147 173.34 177.867 171.48C176.587 169.62 175.947 166.93 175.947 163.41C175.947 159.87 176.587 157.18 177.867 155.34C179.147 153.5 180.987 152.58 183.387 152.58C185.807 152.58 187.647 153.5 188.907 155.34C190.187 157.18 190.827 159.86 190.827 163.38C190.827 166.92 190.187 169.62 188.907 171.48C187.627 173.34 185.787 174.27 183.387 174.27ZM183.387 172.11C185.067 172.11 186.317 171.4 187.137 169.98C187.957 168.56 188.367 166.36 188.367 163.38C188.367 160.38 187.957 158.19 187.137 156.81C186.317 155.41 185.067 154.71 183.387 154.71C181.727 154.71 180.477 155.41 179.637 156.81C178.817 158.21 178.407 160.4 178.407 163.38C178.407 166.36 178.817 168.56 179.637 169.98C180.477 171.4 181.727 172.11 183.387 172.11ZM210.998 174.27C208.598 174.27 206.758 173.34 205.478 171.48C204.198 169.62 203.558 166.93 203.558 163.41C203.558 159.87 204.198 157.18 205.478 155.34C206.758 153.5 208.598 152.58 210.998 152.58C213.418 152.58 215.258 153.5 216.518 155.34C217.798 157.18 218.438 159.86 218.438 163.38C218.438 166.92 217.798 169.62 216.518 171.48C215.238 173.34 213.398 174.27 210.998 174.27ZM210.998 172.11C212.678 172.11 213.928 171.4 214.748 169.98C215.568 168.56 215.978 166.36 215.978 163.38C215.978 160.38 215.568 158.19 214.748 156.81C213.928 155.41 212.678 154.71 210.998 154.71C209.338 154.71 208.088 155.41 207.248 156.81C206.428 158.21 206.018 160.4 206.018 163.38C206.018 166.36 206.428 168.56 207.248 169.98C208.088 171.4 209.338 172.11 210.998 172.11ZM229.886 174.27C227.486 174.27 225.646 173.34 224.366 171.48C223.086 169.62 222.446 166.93 222.446 163.41C222.446 159.87 223.086 157.18 224.366 155.34C225.646 153.5 227.486 152.58 229.886 152.58C232.306 152.58 234.146 153.5 235.406 155.34C236.686 157.18 237.326 159.86 237.326 163.38C237.326 166.92 236.686 169.62 235.406 171.48C234.126 173.34 232.286 174.27 229.886 174.27ZM229.886 172.11C231.566 172.11 232.816 171.4 233.636 169.98C234.456 168.56 234.866 166.36 234.866 163.38C234.866 160.38 234.456 158.19 233.636 156.81C232.816 155.41 231.566 154.71 229.886 154.71C228.226 154.71 226.976 155.41 226.136 156.81C225.316 158.21 224.906 160.4 224.906 163.38C224.906 166.36 225.316 168.56 226.136 169.98C226.976 171.4 228.226 172.11 229.886 172.11ZM248.774 174.27C246.374 174.27 244.534 173.34 243.254 171.48C241.974 169.62 241.334 166.93 241.334 163.41C241.334 159.87 241.974 157.18 243.254 155.34C244.534 153.5 246.374 152.58 248.774 152.58C251.194 152.58 253.034 153.5 254.294 155.34C255.574 157.18 256.214 159.86 256.214 163.38C256.214 166.92 255.574 169.62 254.294 171.48C253.014 173.34 251.174 174.27 248.774 174.27ZM248.774 172.11C250.454 172.11 251.704 171.4 252.524 169.98C253.344 168.56 253.754 166.36 253.754 163.38C253.754 160.38 253.344 158.19 252.524 156.81C251.704 155.41 250.454 154.71 248.774 154.71C247.114 154.71 245.864 155.41 245.024 156.81C244.204 158.21 243.794 160.4 243.794 163.38C243.794 166.36 244.204 168.56 245.024 169.98C245.864 171.4 247.114 172.11 248.774 172.11Z" fill="#0C5EED"/>
<circle cx="183.5" cy="183.5" r="183" stroke="#0C5EED"/>
<path d="M492.882 160V150.964H494.34V154.762H496.05L499.038 150.964H500.64L497.22 155.338L496.824 154.888C497.172 154.924 497.472 155.008 497.724 155.14C497.976 155.272 498.216 155.47 498.444 155.734C498.684 155.998 498.942 156.364 499.218 156.832L501.09 160H499.524L497.868 157.192C497.664 156.844 497.466 156.58 497.274 156.4C497.094 156.22 496.884 156.094 496.644 156.022C496.416 155.95 496.128 155.914 495.78 155.914H494.34V160H492.882ZM506.348 160.162C505.484 160.162 504.728 159.976 504.08 159.604C503.444 159.22 502.952 158.68 502.604 157.984C502.256 157.276 502.082 156.442 502.082 155.482C502.082 154.51 502.256 153.676 502.604 152.98C502.952 152.284 503.444 151.75 504.08 151.378C504.728 150.994 505.484 150.802 506.348 150.802C507.224 150.802 507.98 150.994 508.616 151.378C509.264 151.75 509.762 152.284 510.11 152.98C510.47 153.676 510.65 154.51 510.65 155.482C510.65 156.442 510.47 157.276 510.11 157.984C509.762 158.68 509.264 159.22 508.616 159.604C507.98 159.976 507.224 160.162 506.348 160.162ZM506.348 158.974C507.212 158.974 507.896 158.68 508.4 158.092C508.904 157.492 509.156 156.622 509.156 155.482C509.156 154.33 508.898 153.46 508.382 152.872C507.878 152.272 507.2 151.972 506.348 151.972C505.496 151.972 504.818 152.272 504.314 152.872C503.81 153.46 503.558 154.33 503.558 155.482C503.558 156.622 503.81 157.492 504.314 158.092C504.818 158.68 505.496 158.974 506.348 158.974ZM513.027 160V150.964H514.251L517.635 157.03L521.037 150.964H522.261V160H520.965V152.584H521.343L518.013 158.542H517.275L513.927 152.566H514.323V160H513.027ZM525.138 160V150.964H532.968V160H531.51V152.116H526.596V160H525.138ZM539.353 160.162C538.549 160.162 537.847 159.976 537.247 159.604C536.647 159.22 536.179 158.68 535.843 157.984C535.519 157.288 535.357 156.454 535.357 155.482C535.357 154.498 535.519 153.658 535.843 152.962C536.179 152.266 536.647 151.732 537.247 151.36C537.847 150.988 538.549 150.802 539.353 150.802C540.169 150.802 540.871 151.012 541.459 151.432C542.059 151.84 542.455 152.398 542.647 153.106H542.431L542.629 150.964H544.033C543.997 151.312 543.961 151.666 543.925 152.026C543.901 152.374 543.889 152.716 543.889 153.052V160H542.431V157.876H542.629C542.437 158.584 542.041 159.142 541.441 159.55C540.841 159.958 540.145 160.162 539.353 160.162ZM539.641 158.974C540.505 158.974 541.189 158.68 541.693 158.092C542.197 157.492 542.449 156.622 542.449 155.482C542.449 154.33 542.197 153.46 541.693 152.872C541.189 152.272 540.505 151.972 539.641 151.972C538.789 151.972 538.105 152.272 537.589 152.872C537.085 153.46 536.833 154.33 536.833 155.482C536.833 156.622 537.085 157.492 537.589 158.092C538.105 158.68 538.789 158.974 539.641 158.974ZM546.83 160V150.964H548.288V154.744H553.256V150.964H554.714V160H553.256V155.914H548.288V160H546.83ZM557.587 160V150.964H558.919V158.65H558.433L564.193 150.964H565.417V160H564.103V152.296H564.589L558.829 160H557.587ZM568.293 160V150.964H569.625V158.65H569.139L574.899 150.964H576.123V160H574.809V152.296H575.295L569.535 160H568.293ZM572.199 150.118C571.707 150.118 571.251 150.034 570.831 149.866C570.411 149.698 570.045 149.446 569.733 149.11C569.421 148.762 569.187 148.336 569.031 147.832L569.895 147.508C570.111 148.084 570.405 148.51 570.777 148.786C571.161 149.062 571.641 149.2 572.217 149.2C572.793 149.2 573.267 149.074 573.639 148.822C574.011 148.57 574.335 148.138 574.611 147.526L575.439 147.832C575.127 148.648 574.689 149.236 574.125 149.596C573.573 149.944 572.931 150.118 572.199 150.118Z" fill="#686C77"/>
<path d="M499.81 125V122.87H504.79V105.98H506.11L500.29 109.61V107.12L505.48 103.85H507.28V122.87H511.96V125H499.81ZM523.888 125.27C521.488 125.27 519.648 124.34 518.368 122.48C517.088 120.62 516.448 117.93 516.448 114.41C516.448 110.87 517.088 108.18 518.368 106.34C519.648 104.5 521.488 103.58 523.888 103.58C526.308 103.58 528.148 104.5 529.408 106.34C530.688 108.18 531.328 110.86 531.328 114.38C531.328 117.92 530.688 120.62 529.408 122.48C528.128 124.34 526.288 125.27 523.888 125.27ZM523.888 123.11C525.568 123.11 526.818 122.4 527.638 120.98C528.458 119.56 528.868 117.36 528.868 114.38C528.868 111.38 528.458 109.19 527.638 107.81C526.818 106.41 525.568 105.71 523.888 105.71C522.228 105.71 520.978 106.41 520.138 107.81C519.318 109.21 518.908 111.4 518.908 114.38C518.908 117.36 519.318 119.56 520.138 120.98C520.978 122.4 522.228 123.11 523.888 123.11ZM542.777 125.27C540.377 125.27 538.537 124.34 537.257 122.48C535.977 120.62 535.337 117.93 535.337 114.41C535.337 110.87 535.977 108.18 537.257 106.34C538.537 104.5 540.377 103.58 542.777 103.58C545.197 103.58 547.037 104.5 548.297 106.34C549.577 108.18 550.217 110.86 550.217 114.38C550.217 117.92 549.577 120.62 548.297 122.48C547.017 124.34 545.177 125.27 542.777 125.27ZM542.777 123.11C544.457 123.11 545.707 122.4 546.527 120.98C547.347 119.56 547.757 117.36 547.757 114.38C547.757 111.38 547.347 109.19 546.527 107.81C545.707 106.41 544.457 105.71 542.777 105.71C541.117 105.71 539.867 106.41 539.027 107.81C538.207 109.21 537.797 111.4 537.797 114.38C537.797 117.36 538.207 119.56 539.027 120.98C539.867 122.4 541.117 123.11 542.777 123.11ZM561.665 125.27C559.265 125.27 557.425 124.34 556.145 122.48C554.865 120.62 554.225 117.93 554.225 114.41C554.225 110.87 554.865 108.18 556.145 106.34C557.425 104.5 559.265 103.58 561.665 103.58C564.085 103.58 565.925 104.5 567.185 106.34C568.465 108.18 569.105 110.86 569.105 114.38C569.105 117.92 568.465 120.62 567.185 122.48C565.905 124.34 564.065 125.27 561.665 125.27ZM561.665 123.11C563.345 123.11 564.595 122.4 565.415 120.98C566.235 119.56 566.645 117.36 566.645 114.38C566.645 111.38 566.235 109.19 565.415 107.81C564.595 106.41 563.345 105.71 561.665 105.71C560.005 105.71 558.755 106.41 557.915 107.81C557.095 109.21 556.685 111.4 556.685 114.38C556.685 117.36 557.095 119.56 557.915 120.98C558.755 122.4 560.005 123.11 561.665 123.11Z" fill="#0C5EED"/>
<circle cx="534" cy="135" r="134.5" stroke="#0C5EED"/>
<path d="M277.578 533.162C276.69 533.162 275.916 532.97 275.256 532.586C274.608 532.202 274.104 531.656 273.744 530.948C273.396 530.24 273.222 529.4 273.222 528.428C273.222 527.444 273.402 526.61 273.762 525.926C274.122 525.23 274.626 524.702 275.274 524.342C275.934 523.982 276.702 523.802 277.578 523.802C278.154 523.802 278.712 523.904 279.252 524.108C279.804 524.312 280.26 524.6 280.62 524.972L280.098 526.016C279.738 525.668 279.342 525.41 278.91 525.242C278.49 525.074 278.076 524.99 277.668 524.99C276.732 524.99 276.006 525.284 275.49 525.872C274.974 526.46 274.716 527.318 274.716 528.446C274.716 529.562 274.974 530.426 275.49 531.038C276.006 531.65 276.732 531.956 277.668 531.956C278.064 531.956 278.472 531.878 278.892 531.722C279.324 531.566 279.726 531.308 280.098 530.948L280.62 531.974C280.248 532.358 279.786 532.652 279.234 532.856C278.682 533.06 278.13 533.162 277.578 533.162ZM282.795 533V523.964H290.625V533H289.167V525.116H284.253V533H282.795ZM297.587 533.162C296.171 533.162 295.055 532.754 294.239 531.938C293.423 531.11 293.015 529.964 293.015 528.5C293.015 527.552 293.195 526.73 293.555 526.034C293.915 525.326 294.419 524.78 295.067 524.396C295.715 524 296.459 523.802 297.299 523.802C298.127 523.802 298.823 523.976 299.387 524.324C299.951 524.672 300.383 525.17 300.683 525.818C300.983 526.454 301.133 527.21 301.133 528.086V528.626H294.131V527.708H300.179L299.873 527.942C299.873 526.982 299.657 526.232 299.225 525.692C298.793 525.152 298.151 524.882 297.299 524.882C296.399 524.882 295.697 525.2 295.193 525.836C294.689 526.46 294.437 527.306 294.437 528.374V528.536C294.437 529.664 294.713 530.522 295.265 531.11C295.829 531.686 296.615 531.974 297.623 531.974C298.163 531.974 298.667 531.896 299.135 531.74C299.615 531.572 300.071 531.302 300.503 530.93L301.007 531.956C300.611 532.34 300.107 532.64 299.495 532.856C298.895 533.06 298.259 533.162 297.587 533.162ZM311.279 535.34V533H303.467V523.964H304.925V531.848H309.659V523.964H311.081V531.848H312.521V535.34H311.279ZM314.471 533V523.964H315.803V531.65H315.317L321.077 523.964H322.301V533H320.987V525.296H321.473L315.713 533H314.471ZM328.686 533.162C327.882 533.162 327.18 532.976 326.58 532.604C325.98 532.22 325.512 531.68 325.176 530.984C324.852 530.288 324.69 529.454 324.69 528.482C324.69 527.498 324.852 526.658 325.176 525.962C325.512 525.266 325.98 524.732 326.58 524.36C327.18 523.988 327.882 523.802 328.686 523.802C329.502 523.802 330.204 524.012 330.792 524.432C331.392 524.84 331.788 525.398 331.98 526.106H331.764L331.962 523.964H333.366C333.33 524.312 333.294 524.666 333.258 525.026C333.234 525.374 333.222 525.716 333.222 526.052V533H331.764V530.876H331.962C331.77 531.584 331.374 532.142 330.774 532.55C330.174 532.958 329.478 533.162 328.686 533.162ZM328.974 531.974C329.838 531.974 330.522 531.68 331.026 531.092C331.53 530.492 331.782 529.622 331.782 528.482C331.782 527.33 331.53 526.46 331.026 525.872C330.522 525.272 329.838 524.972 328.974 524.972C328.122 524.972 327.438 525.272 326.922 525.872C326.418 526.46 326.166 527.33 326.166 528.482C326.166 529.622 326.418 530.492 326.922 531.092C327.438 531.68 328.122 531.974 328.974 531.974ZM335.677 533.198L335.137 532.064C335.557 531.872 335.905 531.638 336.181 531.362C336.469 531.074 336.697 530.714 336.865 530.282C337.033 529.838 337.153 529.292 337.225 528.644C337.297 527.984 337.333 527.192 337.333 526.268V523.964H343.849V533H342.409V525.116H338.683V526.322C338.683 527.738 338.581 528.902 338.377 529.814C338.185 530.726 337.867 531.452 337.423 531.992C336.991 532.52 336.409 532.922 335.677 533.198ZM346.727 533V523.964H348.059V531.65H347.573L353.333 523.964H354.557V533H353.243V525.296H353.729L347.969 533H346.727ZM361.302 533.162C360.414 533.162 359.64 532.97 358.98 532.586C358.332 532.202 357.828 531.656 357.468 530.948C357.12 530.24 356.946 529.4 356.946 528.428C356.946 527.444 357.126 526.61 357.486 525.926C357.846 525.23 358.35 524.702 358.998 524.342C359.658 523.982 360.426 523.802 361.302 523.802C361.878 523.802 362.436 523.904 362.976 524.108C363.528 524.312 363.984 524.6 364.344 524.972L363.822 526.016C363.462 525.668 363.066 525.41 362.634 525.242C362.214 525.074 361.8 524.99 361.392 524.99C360.456 524.99 359.73 525.284 359.214 525.872C358.698 526.46 358.44 527.318 358.44 528.446C358.44 529.562 358.698 530.426 359.214 531.038C359.73 531.65 360.456 531.956 361.392 531.956C361.788 531.956 362.196 531.878 362.616 531.722C363.048 531.566 363.45 531.308 363.822 530.948L364.344 531.974C363.972 532.358 363.51 532.652 362.958 532.856C362.406 533.06 361.854 533.162 361.302 533.162ZM368.446 533V525.134H365.17V523.964H373.198V525.134H369.904V533H368.446ZM378.456 533.162C377.592 533.162 376.836 532.976 376.188 532.604C375.552 532.22 375.06 531.68 374.712 530.984C374.364 530.276 374.19 529.442 374.19 528.482C374.19 527.51 374.364 526.676 374.712 525.98C375.06 525.284 375.552 524.75 376.188 524.378C376.836 523.994 377.592 523.802 378.456 523.802C379.332 523.802 380.088 523.994 380.724 524.378C381.372 524.75 381.87 525.284 382.218 525.98C382.578 526.676 382.758 527.51 382.758 528.482C382.758 529.442 382.578 530.276 382.218 530.984C381.87 531.68 381.372 532.22 380.724 532.604C380.088 532.976 379.332 533.162 378.456 533.162ZM378.456 531.974C379.32 531.974 380.004 531.68 380.508 531.092C381.012 530.492 381.264 529.622 381.264 528.482C381.264 527.33 381.006 526.46 380.49 525.872C379.986 525.272 379.308 524.972 378.456 524.972C377.604 524.972 376.926 525.272 376.422 525.872C375.918 526.46 375.666 527.33 375.666 528.482C375.666 529.622 375.918 530.492 376.422 531.092C376.926 531.68 377.604 531.974 378.456 531.974ZM385.135 533V523.964H389.491C390.535 523.964 391.315 524.168 391.831 524.576C392.359 524.972 392.623 525.56 392.623 526.34C392.623 526.916 392.419 527.402 392.011 527.798C391.615 528.182 391.099 528.41 390.463 528.482V528.266C391.207 528.29 391.801 528.506 392.245 528.914C392.689 529.322 392.911 529.85 392.911 530.498C392.911 531.278 392.623 531.89 392.047 532.334C391.483 532.778 390.679 533 389.635 533H385.135ZM386.521 532.01H389.563C390.199 532.01 390.685 531.878 391.021 531.614C391.369 531.338 391.543 530.948 391.543 530.444C391.543 529.94 391.369 529.556 391.021 529.292C390.685 529.028 390.199 528.896 389.563 528.896H386.521V532.01ZM386.521 527.906H389.401C389.989 527.906 390.445 527.774 390.769 527.51C391.093 527.246 391.255 526.88 391.255 526.412C391.255 525.944 391.093 525.584 390.769 525.332C390.445 525.068 389.989 524.936 389.401 524.936H386.521V527.906Z" fill="#686C77"/>
<path d="M299.81 498V495.87H304.79V478.98H306.11L300.29 482.61V480.12L305.48 476.85H307.28V495.87H311.96V498H299.81ZM323.888 498.27C321.488 498.27 319.648 497.34 318.368 495.48C317.088 493.62 316.448 490.93 316.448 487.41C316.448 483.87 317.088 481.18 318.368 479.34C319.648 477.5 321.488 476.58 323.888 476.58C326.308 476.58 328.148 477.5 329.408 479.34C330.688 481.18 331.328 483.86 331.328 487.38C331.328 490.92 330.688 493.62 329.408 495.48C328.128 497.34 326.288 498.27 323.888 498.27ZM323.888 496.11C325.568 496.11 326.818 495.4 327.638 493.98C328.458 492.56 328.868 490.36 328.868 487.38C328.868 484.38 328.458 482.19 327.638 480.81C326.818 479.41 325.568 478.71 323.888 478.71C322.228 478.71 320.978 479.41 320.138 480.81C319.318 482.21 318.908 484.4 318.908 487.38C318.908 490.36 319.318 492.56 320.138 493.98C320.978 495.4 322.228 496.11 323.888 496.11ZM342.777 498.27C340.377 498.27 338.537 497.34 337.257 495.48C335.977 493.62 335.337 490.93 335.337 487.41C335.337 483.87 335.977 481.18 337.257 479.34C338.537 477.5 340.377 476.58 342.777 476.58C345.197 476.58 347.037 477.5 348.297 479.34C349.577 481.18 350.217 483.86 350.217 487.38C350.217 490.92 349.577 493.62 348.297 495.48C347.017 497.34 345.177 498.27 342.777 498.27ZM342.777 496.11C344.457 496.11 345.707 495.4 346.527 493.98C347.347 492.56 347.757 490.36 347.757 487.38C347.757 484.38 347.347 482.19 346.527 480.81C345.707 479.41 344.457 478.71 342.777 478.71C341.117 478.71 339.867 479.41 339.027 480.81C338.207 482.21 337.797 484.4 337.797 487.38C337.797 490.36 338.207 492.56 339.027 493.98C339.867 495.4 341.117 496.11 342.777 496.11ZM361.665 498.27C359.265 498.27 357.425 497.34 356.145 495.48C354.865 493.62 354.225 490.93 354.225 487.41C354.225 483.87 354.865 481.18 356.145 479.34C357.425 477.5 359.265 476.58 361.665 476.58C364.085 476.58 365.925 477.5 367.185 479.34C368.465 481.18 369.105 483.86 369.105 487.38C369.105 490.92 368.465 493.62 367.185 495.48C365.905 497.34 364.065 498.27 361.665 498.27ZM361.665 496.11C363.345 496.11 364.595 495.4 365.415 493.98C366.235 492.56 366.645 490.36 366.645 487.38C366.645 484.38 366.235 482.19 365.415 480.81C364.595 479.41 363.345 478.71 361.665 478.71C360.005 478.71 358.755 479.41 357.915 480.81C357.095 482.21 356.685 484.4 356.685 487.38C356.685 490.36 357.095 492.56 357.915 493.98C358.755 495.4 360.005 496.11 361.665 496.11Z" fill="#0C5EED"/>
<circle cx="334" cy="508" r="134.5" stroke="#0C5EED"/>
<path d="M562.939 456V446.964H567.295C568.339 446.964 569.119 447.168 569.635 447.576C570.163 447.972 570.427 448.56 570.427 449.34C570.427 449.916 570.223 450.402 569.815 450.798C569.419 451.182 568.903 451.41 568.267 451.482V451.266C569.011 451.29 569.605 451.506 570.049 451.914C570.493 452.322 570.715 452.85 570.715 453.498C570.715 454.278 570.427 454.89 569.851 455.334C569.287 455.778 568.483 456 567.439 456H562.939ZM564.325 455.01H567.367C568.003 455.01 568.489 454.878 568.825 454.614C569.173 454.338 569.347 453.948 569.347 453.444C569.347 452.94 569.173 452.556 568.825 452.292C568.489 452.028 568.003 451.896 567.367 451.896H564.325V455.01ZM564.325 450.906H567.205C567.793 450.906 568.249 450.774 568.573 450.51C568.897 450.246 569.059 449.88 569.059 449.412C569.059 448.944 568.897 448.584 568.573 448.332C568.249 448.068 567.793 447.936 567.205 447.936H564.325V450.906ZM572.976 456V446.964H574.434V450.204H577.152C578.316 450.204 579.192 450.456 579.78 450.96C580.38 451.452 580.68 452.154 580.68 453.066C580.68 453.678 580.542 454.206 580.266 454.65C580.002 455.082 579.606 455.418 579.078 455.658C578.562 455.886 577.92 456 577.152 456H572.976ZM574.434 454.956H577.026C577.758 454.956 578.316 454.806 578.7 454.506C579.084 454.194 579.276 453.72 579.276 453.084C579.276 452.448 579.084 451.986 578.7 451.698C578.328 451.398 577.77 451.248 577.026 451.248H574.434V454.956ZM582.048 456V446.964H583.488V456H582.048ZM586.371 456V446.964H587.703V454.65H587.217L592.977 446.964H594.201V456H592.887V448.296H593.373L587.613 456H586.371ZM597.076 456V446.964H603.376V448.134H598.534V456H597.076ZM605.163 459.888V449.052C605.163 448.716 605.145 448.374 605.109 448.026C605.085 447.666 605.055 447.312 605.019 446.964H606.423L606.621 449.106H606.405C606.597 448.398 606.987 447.84 607.575 447.432C608.163 447.012 608.865 446.802 609.681 446.802C610.497 446.802 611.199 446.988 611.787 447.36C612.387 447.732 612.855 448.266 613.191 448.962C613.527 449.658 613.695 450.498 613.695 451.482C613.695 452.454 613.527 453.288 613.191 453.984C612.867 454.68 612.405 455.22 611.805 455.604C611.205 455.976 610.497 456.162 609.681 456.162C608.877 456.162 608.181 455.958 607.593 455.55C607.005 455.142 606.615 454.584 606.423 453.876H606.621V459.888H605.163ZM609.393 454.974C610.257 454.974 610.941 454.68 611.445 454.092C611.961 453.492 612.219 452.622 612.219 451.482C612.219 450.33 611.961 449.46 611.445 448.872C610.941 448.272 610.257 447.972 609.393 447.972C608.541 447.972 607.857 448.272 607.341 448.872C606.837 449.46 606.585 450.33 606.585 451.482C606.585 452.622 606.837 453.492 607.341 454.092C607.857 454.68 608.541 454.974 609.393 454.974ZM619.588 456.162C618.784 456.162 618.082 455.976 617.482 455.604C616.882 455.22 616.414 454.68 616.078 453.984C615.754 453.288 615.592 452.454 615.592 451.482C615.592 450.498 615.754 449.658 616.078 448.962C616.414 448.266 616.882 447.732 617.482 447.36C618.082 446.988 618.784 446.802 619.588 446.802C620.404 446.802 621.106 447.012 621.694 447.432C622.294 447.84 622.69 448.398 622.882 449.106H622.666L622.864 446.964H624.268C624.232 447.312 624.196 447.666 624.16 448.026C624.136 448.374 624.124 448.716 624.124 449.052V456H622.666V453.876H622.864C622.672 454.584 622.276 455.142 621.676 455.55C621.076 455.958 620.38 456.162 619.588 456.162ZM619.876 454.974C620.74 454.974 621.424 454.68 621.928 454.092C622.432 453.492 622.684 452.622 622.684 451.482C622.684 450.33 622.432 449.46 621.928 448.872C621.424 448.272 620.74 447.972 619.876 447.972C619.024 447.972 618.34 448.272 617.824 448.872C617.32 449.46 617.068 450.33 617.068 451.482C617.068 452.622 617.32 453.492 617.824 454.092C618.34 454.68 619.024 454.974 619.876 454.974ZM627.064 456V446.964H628.522V450.744H633.49V446.964H634.948V456H633.49V451.914H628.522V456H627.064ZM637.822 456V446.964H639.28V450.744H644.248V446.964H645.706V456H644.248V451.914H639.28V456H637.822ZM648.58 456V446.964H650.038V450.204H652.756C653.92 450.204 654.796 450.456 655.384 450.96C655.984 451.452 656.284 452.154 656.284 453.066C656.284 453.678 656.146 454.206 655.87 454.65C655.606 455.082 655.21 455.418 654.682 455.658C654.166 455.886 653.524 456 652.756 456H648.58ZM650.038 454.956H652.63C653.362 454.956 653.92 454.806 654.304 454.506C654.688 454.194 654.88 453.72 654.88 453.084C654.88 452.448 654.688 451.986 654.304 451.698C653.932 451.398 653.374 451.248 652.63 451.248H650.038V454.956ZM657.652 456V446.964H659.092V456H657.652ZM660.822 456L664.872 450.978V451.698L661.038 446.964H662.802L665.7 450.654H665.178L668.058 446.964H669.804L666.024 451.68V451.014L670.038 456H668.256L665.16 452.058H665.7L662.568 456H660.822ZM675.505 458.34V454.848H676.459C676.891 454.236 677.203 453.504 677.395 452.652C677.587 451.8 677.683 450.792 677.683 449.628V446.964H684.037V454.848H685.459V458.34H684.199V456H676.747V458.34H675.505ZM677.863 454.866H682.651V448.098H678.961V449.862C678.961 450.81 678.865 451.728 678.673 452.616C678.493 453.492 678.223 454.242 677.863 454.866ZM691.496 456.162C690.08 456.162 688.964 455.754 688.148 454.938C687.332 454.11 686.924 452.964 686.924 451.5C686.924 450.552 687.104 449.73 687.464 449.034C687.824 448.326 688.328 447.78 688.976 447.396C689.624 447 690.368 446.802 691.208 446.802C692.036 446.802 692.732 446.976 693.296 447.324C693.86 447.672 694.292 448.17 694.592 448.818C694.892 449.454 695.042 450.21 695.042 451.086V451.626H688.04V450.708H694.088L693.782 450.942C693.782 449.982 693.566 449.232 693.134 448.692C692.702 448.152 692.06 447.882 691.208 447.882C690.308 447.882 689.606 448.2 689.102 448.836C688.598 449.46 688.346 450.306 688.346 451.374V451.536C688.346 452.664 688.622 453.522 689.174 454.11C689.738 454.686 690.524 454.974 691.532 454.974C692.072 454.974 692.576 454.896 693.044 454.74C693.524 454.572 693.98 454.302 694.412 453.93L694.916 454.956C694.52 455.34 694.016 455.64 693.404 455.856C692.804 456.06 692.168 456.162 691.496 456.162ZM696.891 456.198L696.351 455.064C696.771 454.872 697.119 454.638 697.395 454.362C697.683 454.074 697.911 453.714 698.079 453.282C698.247 452.838 698.367 452.292 698.439 451.644C698.511 450.984 698.547 450.192 698.547 449.268V446.964H705.063V456H703.623V448.116H699.897V449.322C699.897 450.738 699.795 451.902 699.591 452.814C699.399 453.726 699.081 454.452 698.637 454.992C698.205 455.52 697.623 455.922 696.891 456.198Z" fill="#686C77"/>
<path d="M613.59 421.27C612.49 421.27 611.38 421.04 610.26 420.58C609.14 420.1 608.21 419.48 607.47 418.72L608.4 416.77C609.16 417.55 609.99 418.13 610.89 418.51C611.79 418.89 612.7 419.08 613.62 419.08C615.64 419.08 617.19 418.36 618.27 416.92C619.37 415.46 619.92 413.28 619.92 410.38V407.59H620.22C620.1 408.71 619.75 409.69 619.17 410.53C618.61 411.37 617.88 412.01 616.98 412.45C616.1 412.89 615.11 413.11 614.01 413.11C612.73 413.11 611.59 412.83 610.59 412.27C609.61 411.71 608.84 410.92 608.28 409.9C607.72 408.88 607.44 407.73 607.44 406.45C607.44 405.11 607.73 403.93 608.31 402.91C608.91 401.87 609.72 401.06 610.74 400.48C611.78 399.88 612.97 399.58 614.31 399.58C616.89 399.58 618.87 400.48 620.25 402.28C621.65 404.08 622.35 406.62 622.35 409.9C622.35 412.32 622 414.38 621.3 416.08C620.6 417.78 619.6 419.07 618.3 419.95C617 420.83 615.43 421.27 613.59 421.27ZM614.52 411.04C615.44 411.04 616.25 410.84 616.95 410.44C617.65 410.04 618.19 409.49 618.57 408.79C618.97 408.09 619.17 407.28 619.17 406.36C619.17 405.42 618.97 404.6 618.57 403.9C618.19 403.2 617.65 402.65 616.95 402.25C616.25 401.85 615.44 401.65 614.52 401.65C613.6 401.65 612.78 401.85 612.06 402.25C611.36 402.65 610.81 403.2 610.41 403.9C610.03 404.6 609.84 405.42 609.84 406.36C609.84 407.28 610.03 408.09 610.41 408.79C610.81 409.49 611.36 410.04 612.06 410.44C612.78 410.84 613.6 411.04 614.52 411.04ZM634.578 421.27C632.018 421.27 630.038 420.37 628.638 418.57C627.258 416.75 626.568 414.21 626.568 410.95C626.568 408.51 626.918 406.45 627.618 404.77C628.318 403.07 629.318 401.78 630.618 400.9C631.918 400.02 633.488 399.58 635.328 399.58C636.428 399.58 637.538 399.81 638.658 400.27C639.778 400.71 640.698 401.33 641.418 402.13L640.518 404.05C639.758 403.27 638.928 402.7 638.028 402.34C637.128 401.96 636.218 401.77 635.298 401.77C633.258 401.77 631.688 402.5 630.588 403.96C629.508 405.4 628.968 407.57 628.968 410.47V413.26H628.698C628.838 412.12 629.178 411.14 629.718 410.32C630.278 409.48 631.008 408.84 631.908 408.4C632.808 407.96 633.808 407.74 634.908 407.74C636.188 407.74 637.318 408.02 638.298 408.58C639.278 409.14 640.048 409.93 640.608 410.95C641.168 411.95 641.448 413.1 641.448 414.4C641.448 415.72 641.158 416.9 640.578 417.94C639.998 418.98 639.188 419.8 638.148 420.4C637.108 420.98 635.918 421.27 634.578 421.27ZM634.398 419.17C635.318 419.17 636.128 418.98 636.828 418.6C637.548 418.2 638.098 417.65 638.478 416.95C638.878 416.23 639.078 415.41 639.078 414.49C639.078 413.57 638.878 412.76 638.478 412.06C638.098 411.36 637.548 410.81 636.828 410.41C636.128 410.01 635.318 409.81 634.398 409.81C633.478 409.81 632.668 410.01 631.968 410.41C631.268 410.81 630.718 411.36 630.318 412.06C629.938 412.76 629.748 413.57 629.748 414.49C629.748 415.41 629.938 416.23 630.318 416.95C630.718 417.65 631.268 418.2 631.968 418.6C632.668 418.98 633.478 419.17 634.398 419.17ZM652.657 421.27C651.237 421.27 649.877 421.05 648.577 420.61C647.277 420.17 646.187 419.54 645.307 418.72L646.237 416.8C647.217 417.6 648.227 418.18 649.267 418.54C650.307 418.9 651.427 419.08 652.627 419.08C654.207 419.08 655.407 418.75 656.227 418.09C657.047 417.41 657.457 416.42 657.457 415.12C657.457 413.88 657.037 412.94 656.197 412.3C655.357 411.64 654.127 411.31 652.507 411.31H649.327V409.24H652.297C653.697 409.24 654.807 408.88 655.627 408.16C656.447 407.44 656.857 406.46 656.857 405.22C656.857 404.1 656.477 403.25 655.717 402.67C654.977 402.07 653.907 401.77 652.507 401.77C650.227 401.77 648.257 402.58 646.597 404.2L645.667 402.25C646.487 401.41 647.517 400.76 648.757 400.3C649.997 399.82 651.297 399.58 652.657 399.58C654.737 399.58 656.367 400.06 657.547 401.02C658.727 401.98 659.317 403.31 659.317 405.01C659.317 406.31 658.947 407.43 658.207 408.37C657.467 409.29 656.467 409.92 655.207 410.26V409.93C656.707 410.17 657.867 410.77 658.687 411.73C659.507 412.67 659.917 413.86 659.917 415.3C659.917 417.14 659.267 418.6 657.967 419.68C656.687 420.74 654.917 421.27 652.657 421.27Z" fill="#0C5EED"/>
<circle cx="634" cy="431" r="134.5" stroke="#0C5EED"/>
</svg>
