<svg width="290" height="545" viewBox="0 0 290 545" fill="none" xmlns="http://www.w3.org/2000/svg">
<path d="M81.1694 125.126C80.4974 125.126 79.9094 124.981 79.4054 124.692C78.9107 124.393 78.528 123.973 78.2574 123.432C77.9867 122.881 77.8514 122.233 77.8514 121.486C77.8514 120.73 77.9867 120.081 78.2574 119.54C78.528 118.999 78.9107 118.583 79.4054 118.294C79.9094 117.995 80.4974 117.846 81.1694 117.846C81.8507 117.846 82.4387 117.995 82.9334 118.294C83.4374 118.583 83.8247 118.999 84.0954 119.54C84.3754 120.081 84.5154 120.73 84.5154 121.486C84.5154 122.233 84.3754 122.881 84.0954 123.432C83.8247 123.973 83.4374 124.393 82.9334 124.692C82.4387 124.981 81.8507 125.126 81.1694 125.126ZM81.1694 124.202C81.8414 124.202 82.3734 123.973 82.7654 123.516C83.1574 123.049 83.3534 122.373 83.3534 121.486C83.3534 120.59 83.1527 119.913 82.7514 119.456C82.3594 118.989 81.832 118.756 81.1694 118.756C80.5067 118.756 79.9794 118.989 79.5874 119.456C79.1954 119.913 78.9994 120.59 78.9994 121.486C78.9994 122.373 79.1954 123.049 79.5874 123.516C79.9794 123.973 80.5067 124.202 81.1694 124.202ZM87.8621 125V118.882H85.3141V117.972H91.5581V118.882H88.9961V125H87.8621ZM95.0592 125.126C94.4619 125.126 93.8972 125.047 93.3652 124.888C92.8426 124.72 92.4132 124.491 92.0772 124.202L92.4692 123.404C92.8146 123.684 93.2019 123.899 93.6312 124.048C94.0699 124.188 94.5459 124.258 95.0592 124.258C95.7499 124.258 96.2492 124.151 96.5572 123.936C96.8652 123.721 97.0192 123.418 97.0192 123.026C97.0192 122.643 96.8886 122.354 96.6272 122.158C96.3659 121.953 95.9832 121.85 95.4792 121.85H93.8272V121.01H95.3392C95.7872 121.01 96.1372 120.912 96.3892 120.716C96.6506 120.511 96.7812 120.231 96.7812 119.876C96.7812 119.512 96.6412 119.227 96.3612 119.022C96.0812 118.807 95.6426 118.7 95.0452 118.7C94.5692 118.7 94.1259 118.765 93.7152 118.896C93.3139 119.017 92.9312 119.213 92.5672 119.484L92.1892 118.714C92.5719 118.415 93.0152 118.196 93.5192 118.056C94.0232 117.916 94.5692 117.846 95.1572 117.846C96.0346 117.846 96.7019 118.019 97.1592 118.364C97.6166 118.7 97.8452 119.181 97.8452 119.806C97.8452 120.245 97.6959 120.623 97.3972 120.94C97.0986 121.248 96.7019 121.43 96.2072 121.486V121.318C96.7672 121.337 97.2199 121.505 97.5652 121.822C97.9106 122.139 98.0832 122.555 98.0832 123.068C98.0832 123.693 97.8266 124.193 97.3132 124.566C96.8092 124.939 96.0579 125.126 95.0592 125.126ZM99.8446 125V117.972H100.979V120.492H103.093C103.998 120.492 104.679 120.688 105.137 121.08C105.603 121.463 105.837 122.009 105.837 122.718C105.837 123.194 105.729 123.605 105.515 123.95C105.309 124.286 105.001 124.547 104.591 124.734C104.189 124.911 103.69 125 103.093 125H99.8446ZM100.979 124.188H102.995C103.564 124.188 103.998 124.071 104.297 123.838C104.595 123.595 104.745 123.227 104.745 122.732C104.745 122.237 104.595 121.878 104.297 121.654C104.007 121.421 103.573 121.304 102.995 121.304H100.979V124.188ZM106.901 125V117.972H108.021V125H106.901ZM110.263 125V117.972H113.651C114.463 117.972 115.069 118.131 115.471 118.448C115.881 118.756 116.087 119.213 116.087 119.82C116.087 120.268 115.928 120.646 115.611 120.954C115.303 121.253 114.901 121.43 114.407 121.486V121.318C114.985 121.337 115.447 121.505 115.793 121.822C116.138 122.139 116.311 122.55 116.311 123.054C116.311 123.661 116.087 124.137 115.639 124.482C115.2 124.827 114.575 125 113.763 125H110.263ZM111.341 124.23H113.707C114.201 124.23 114.579 124.127 114.841 123.922C115.111 123.707 115.247 123.404 115.247 123.012C115.247 122.62 115.111 122.321 114.841 122.116C114.579 121.911 114.201 121.808 113.707 121.808H111.341V124.23ZM111.341 121.038H113.581C114.038 121.038 114.393 120.935 114.645 120.73C114.897 120.525 115.023 120.24 115.023 119.876C115.023 119.512 114.897 119.232 114.645 119.036C114.393 118.831 114.038 118.728 113.581 118.728H111.341V121.038ZM121.009 125.126C120.337 125.126 119.749 124.981 119.245 124.692C118.751 124.393 118.368 123.973 118.097 123.432C117.827 122.881 117.691 122.233 117.691 121.486C117.691 120.73 117.827 120.081 118.097 119.54C118.368 118.999 118.751 118.583 119.245 118.294C119.749 117.995 120.337 117.846 121.009 117.846C121.691 117.846 122.279 117.995 122.773 118.294C123.277 118.583 123.665 118.999 123.935 119.54C124.215 120.081 124.355 120.73 124.355 121.486C124.355 122.233 124.215 122.881 123.935 123.432C123.665 123.973 123.277 124.393 122.773 124.692C122.279 124.981 121.691 125.126 121.009 125.126ZM121.009 124.202C121.681 124.202 122.213 123.973 122.605 123.516C122.997 123.049 123.193 122.373 123.193 121.486C123.193 120.59 122.993 119.913 122.591 119.456C122.199 118.989 121.672 118.756 121.009 118.756C120.347 118.756 119.819 118.989 119.427 119.456C119.035 119.913 118.839 120.59 118.839 121.486C118.839 122.373 119.035 123.049 119.427 123.516C119.819 123.973 120.347 124.202 121.009 124.202ZM126.204 125V117.972H129.592C130.404 117.972 131.011 118.131 131.412 118.448C131.823 118.756 132.028 119.213 132.028 119.82C132.028 120.268 131.869 120.646 131.552 120.954C131.244 121.253 130.843 121.43 130.348 121.486V121.318C130.927 121.337 131.389 121.505 131.734 121.822C132.079 122.139 132.252 122.55 132.252 123.054C132.252 123.661 132.028 124.137 131.58 124.482C131.141 124.827 130.516 125 129.704 125H126.204ZM127.282 124.23H129.648C130.143 124.23 130.521 124.127 130.782 123.922C131.053 123.707 131.188 123.404 131.188 123.012C131.188 122.62 131.053 122.321 130.782 122.116C130.521 121.911 130.143 121.808 129.648 121.808H127.282V124.23ZM127.282 121.038H129.522C129.979 121.038 130.334 120.935 130.586 120.73C130.838 120.525 130.964 120.24 130.964 119.876C130.964 119.512 130.838 119.232 130.586 119.036C130.334 118.831 129.979 118.728 129.522 118.728H127.282V121.038Z" fill="#686C77"/>
<path d="M56.66 102V100.46L61.5 95.4C62.1267 94.7467 62.5933 94.1333 62.9 93.56C63.2067 92.9867 63.36 92.3933 63.36 91.78C63.36 91.02 63.12 90.4467 62.64 90.06C62.1733 89.6733 61.4933 89.48 60.6 89.48C59.8933 89.48 59.2267 89.6067 58.6 89.86C57.9867 90.1133 57.3933 90.5 56.82 91.02L56.1 89.44C56.66 88.92 57.3533 88.5067 58.18 88.2C59.02 87.88 59.9067 87.72 60.84 87.72C62.3067 87.72 63.4333 88.0533 64.22 88.72C65.02 89.3867 65.42 90.34 65.42 91.58C65.42 92.46 65.2067 93.3067 64.78 94.12C64.3533 94.92 63.7133 95.7467 62.86 96.6L58.68 100.82V100.26H66V102H56.66ZM79.5242 102.18C77.8976 102.18 76.6442 101.56 75.7642 100.32C74.8976 99.0667 74.4642 97.2733 74.4642 94.94C74.4642 92.5667 74.8976 90.7733 75.7642 89.56C76.6442 88.3333 77.8976 87.72 79.5242 87.72C81.1642 87.72 82.4176 88.3333 83.2842 89.56C84.1509 90.7733 84.5842 92.56 84.5842 94.92C84.5842 97.2667 84.1442 99.0667 83.2642 100.32C82.3976 101.56 81.1509 102.18 79.5242 102.18ZM79.5242 100.44C80.5509 100.44 81.3109 99.9933 81.8042 99.1C82.3109 98.2067 82.5642 96.8133 82.5642 94.92C82.5642 93.0133 82.3109 91.6267 81.8042 90.76C81.3109 89.88 80.5509 89.44 79.5242 89.44C78.5109 89.44 77.7509 89.88 77.2442 90.76C76.7376 91.6267 76.4842 93.0067 76.4842 94.9C76.4842 96.8067 76.7376 98.2067 77.2442 99.1C77.7642 99.9933 78.5242 100.44 79.5242 100.44ZM92.1164 102.18C90.4897 102.18 89.2364 101.56 88.3564 100.32C87.4897 99.0667 87.0564 97.2733 87.0564 94.94C87.0564 92.5667 87.4897 90.7733 88.3564 89.56C89.2364 88.3333 90.4897 87.72 92.1164 87.72C93.7564 87.72 95.0097 88.3333 95.8764 89.56C96.7431 90.7733 97.1764 92.56 97.1764 94.92C97.1764 97.2667 96.7364 99.0667 95.8564 100.32C94.9897 101.56 93.7431 102.18 92.1164 102.18ZM92.1164 100.44C93.1431 100.44 93.9031 99.9933 94.3964 99.1C94.9031 98.2067 95.1564 96.8133 95.1564 94.92C95.1564 93.0133 94.9031 91.6267 94.3964 90.76C93.9031 89.88 93.1431 89.44 92.1164 89.44C91.1031 89.44 90.3431 89.88 89.8364 90.76C89.3297 91.6267 89.0764 93.0067 89.0764 94.9C89.0764 96.8067 89.3297 98.2067 89.8364 99.1C90.3564 99.9933 91.1164 100.44 92.1164 100.44ZM104.709 102.18C103.082 102.18 101.829 101.56 100.949 100.32C100.082 99.0667 99.6486 97.2733 99.6486 94.94C99.6486 92.5667 100.082 90.7733 100.949 89.56C101.829 88.3333 103.082 87.72 104.709 87.72C106.349 87.72 107.602 88.3333 108.469 89.56C109.335 90.7733 109.769 92.56 109.769 94.92C109.769 97.2667 109.329 99.0667 108.449 100.32C107.582 101.56 106.335 102.18 104.709 102.18ZM104.709 100.44C105.735 100.44 106.495 99.9933 106.989 99.1C107.495 98.2067 107.749 96.8133 107.749 94.92C107.749 93.0133 107.495 91.6267 106.989 90.76C106.495 89.88 105.735 89.44 104.709 89.44C103.695 89.44 102.935 89.88 102.429 90.76C101.922 91.6267 101.669 93.0067 101.669 94.9C101.669 96.8067 101.922 98.2067 102.429 99.1C102.949 99.9933 103.709 100.44 104.709 100.44ZM123.233 102.18C121.606 102.18 120.353 101.56 119.473 100.32C118.606 99.0667 118.173 97.2733 118.173 94.94C118.173 92.5667 118.606 90.7733 119.473 89.56C120.353 88.3333 121.606 87.72 123.233 87.72C124.873 87.72 126.126 88.3333 126.993 89.56C127.859 90.7733 128.293 92.56 128.293 94.92C128.293 97.2667 127.853 99.0667 126.973 100.32C126.106 101.56 124.859 102.18 123.233 102.18ZM123.233 100.44C124.259 100.44 125.019 99.9933 125.513 99.1C126.019 98.2067 126.273 96.8133 126.273 94.92C126.273 93.0133 126.019 91.6267 125.513 90.76C125.019 89.88 124.259 89.44 123.233 89.44C122.219 89.44 121.459 89.88 120.953 90.76C120.446 91.6267 120.193 93.0067 120.193 94.9C120.193 96.8067 120.446 98.2067 120.953 99.1C121.473 99.9933 122.233 100.44 123.233 100.44ZM135.825 102.18C134.198 102.18 132.945 101.56 132.065 100.32C131.198 99.0667 130.765 97.2733 130.765 94.94C130.765 92.5667 131.198 90.7733 132.065 89.56C132.945 88.3333 134.198 87.72 135.825 87.72C137.465 87.72 138.718 88.3333 139.585 89.56C140.452 90.7733 140.885 92.56 140.885 94.92C140.885 97.2667 140.445 99.0667 139.565 100.32C138.698 101.56 137.452 102.18 135.825 102.18ZM135.825 100.44C136.852 100.44 137.612 99.9933 138.105 99.1C138.612 98.2067 138.865 96.8133 138.865 94.92C138.865 93.0133 138.612 91.6267 138.105 90.76C137.612 89.88 136.852 89.44 135.825 89.44C134.812 89.44 134.052 89.88 133.545 90.76C133.038 91.6267 132.785 93.0067 132.785 94.9C132.785 96.8067 133.038 98.2067 133.545 99.1C134.065 99.9933 134.825 100.44 135.825 100.44ZM148.417 102.18C146.791 102.18 145.537 101.56 144.657 100.32C143.791 99.0667 143.357 97.2733 143.357 94.94C143.357 92.5667 143.791 90.7733 144.657 89.56C145.537 88.3333 146.791 87.72 148.417 87.72C150.057 87.72 151.311 88.3333 152.177 89.56C153.044 90.7733 153.477 92.56 153.477 94.92C153.477 97.2667 153.037 99.0667 152.157 100.32C151.291 101.56 150.044 102.18 148.417 102.18ZM148.417 100.44C149.444 100.44 150.204 99.9933 150.697 99.1C151.204 98.2067 151.457 96.8133 151.457 94.92C151.457 93.0133 151.204 91.6267 150.697 90.76C150.204 89.88 149.444 89.44 148.417 89.44C147.404 89.44 146.644 89.88 146.137 90.76C145.631 91.6267 145.377 93.0067 145.377 94.9C145.377 96.8067 145.631 98.2067 146.137 99.1C146.657 99.9933 147.417 100.44 148.417 100.44Z" fill="#0C5EED"/>
<circle cx="105" cy="105" r="104.5" stroke="#0C5EED"/>
<path d="M190.131 298V290.972H191.265V293.926H192.595L194.919 290.972H196.165L193.505 294.374L193.197 294.024C193.467 294.052 193.701 294.117 193.897 294.22C194.093 294.323 194.279 294.477 194.457 294.682C194.643 294.887 194.844 295.172 195.059 295.536L196.515 298H195.297L194.009 295.816C193.85 295.545 193.696 295.34 193.547 295.2C193.407 295.06 193.243 294.962 193.057 294.906C192.879 294.85 192.655 294.822 192.385 294.822H191.265V298H190.131ZM200.604 298.126C199.932 298.126 199.344 297.981 198.84 297.692C198.345 297.393 197.963 296.973 197.692 296.432C197.421 295.881 197.286 295.233 197.286 294.486C197.286 293.73 197.421 293.081 197.692 292.54C197.963 291.999 198.345 291.583 198.84 291.294C199.344 290.995 199.932 290.846 200.604 290.846C201.285 290.846 201.873 290.995 202.368 291.294C202.872 291.583 203.259 291.999 203.53 292.54C203.81 293.081 203.95 293.73 203.95 294.486C203.95 295.233 203.81 295.881 203.53 296.432C203.259 296.973 202.872 297.393 202.368 297.692C201.873 297.981 201.285 298.126 200.604 298.126ZM200.604 297.202C201.276 297.202 201.808 296.973 202.2 296.516C202.592 296.049 202.788 295.373 202.788 294.486C202.788 293.59 202.587 292.913 202.186 292.456C201.794 291.989 201.267 291.756 200.604 291.756C199.941 291.756 199.414 291.989 199.022 292.456C198.63 292.913 198.434 293.59 198.434 294.486C198.434 295.373 198.63 296.049 199.022 296.516C199.414 296.973 199.941 297.202 200.604 297.202ZM205.799 298V290.972H206.751L209.383 295.69L212.029 290.972H212.981V298H211.973V292.232H212.267L209.677 296.866H209.103L206.499 292.218H206.807V298H205.799ZM215.219 298V290.972H221.309V298H220.175V291.868H216.353V298H215.219ZM226.275 298.126C225.649 298.126 225.103 297.981 224.637 297.692C224.17 297.393 223.806 296.973 223.545 296.432C223.293 295.891 223.167 295.242 223.167 294.486C223.167 293.721 223.293 293.067 223.545 292.526C223.806 291.985 224.17 291.569 224.637 291.28C225.103 290.991 225.649 290.846 226.275 290.846C226.909 290.846 227.455 291.009 227.913 291.336C228.379 291.653 228.687 292.087 228.837 292.638H228.669L228.823 290.972H229.915C229.887 291.243 229.859 291.518 229.831 291.798C229.812 292.069 229.803 292.335 229.803 292.596V298H228.669V296.348H228.823C228.673 296.899 228.365 297.333 227.899 297.65C227.432 297.967 226.891 298.126 226.275 298.126ZM226.499 297.202C227.171 297.202 227.703 296.973 228.095 296.516C228.487 296.049 228.683 295.373 228.683 294.486C228.683 293.59 228.487 292.913 228.095 292.456C227.703 291.989 227.171 291.756 226.499 291.756C225.836 291.756 225.304 291.989 224.903 292.456C224.511 292.913 224.315 293.59 224.315 294.486C224.315 295.373 224.511 296.049 224.903 296.516C225.304 296.973 225.836 297.202 226.499 297.202ZM232.09 298V290.972H233.224V293.912H237.088V290.972H238.222V298H237.088V294.822H233.224V298H232.09ZM240.457 298V290.972H241.493V296.95H241.115L245.595 290.972H246.547V298H245.525V292.008H245.903L241.423 298H240.457ZM248.783 298V290.972H249.819V296.95H249.441L253.921 290.972H254.873V298H253.851V292.008H254.229L249.749 298H248.783ZM251.821 290.314C251.438 290.314 251.084 290.249 250.757 290.118C250.43 289.987 250.146 289.791 249.903 289.53C249.66 289.259 249.478 288.928 249.357 288.536L250.029 288.284C250.197 288.732 250.426 289.063 250.715 289.278C251.014 289.493 251.387 289.6 251.835 289.6C252.283 289.6 252.652 289.502 252.941 289.306C253.23 289.11 253.482 288.774 253.697 288.298L254.341 288.536C254.098 289.171 253.758 289.628 253.319 289.908C252.89 290.179 252.39 290.314 251.821 290.314Z" fill="#686C77"/>
<path d="M195.4 275V273.26H198.68V262.66H199.72L195.72 265.1V263.1L199.26 260.9H200.76V273.26H203.84V275H195.4ZM211.592 275.18C209.966 275.18 208.712 274.56 207.832 273.32C206.966 272.067 206.532 270.273 206.532 267.94C206.532 265.567 206.966 263.773 207.832 262.56C208.712 261.333 209.966 260.72 211.592 260.72C213.232 260.72 214.486 261.333 215.352 262.56C216.219 263.773 216.652 265.56 216.652 267.92C216.652 270.267 216.212 272.067 215.332 273.32C214.466 274.56 213.219 275.18 211.592 275.18ZM211.592 273.44C212.619 273.44 213.379 272.993 213.872 272.1C214.379 271.207 214.632 269.813 214.632 267.92C214.632 266.013 214.379 264.627 213.872 263.76C213.379 262.88 212.619 262.44 211.592 262.44C210.579 262.44 209.819 262.88 209.312 263.76C208.806 264.627 208.552 266.007 208.552 267.9C208.552 269.807 208.806 271.207 209.312 272.1C209.832 272.993 210.592 273.44 211.592 273.44ZM224.184 275.18C222.558 275.18 221.304 274.56 220.424 273.32C219.558 272.067 219.124 270.273 219.124 267.94C219.124 265.567 219.558 263.773 220.424 262.56C221.304 261.333 222.558 260.72 224.184 260.72C225.824 260.72 227.078 261.333 227.944 262.56C228.811 263.773 229.244 265.56 229.244 267.92C229.244 270.267 228.804 272.067 227.924 273.32C227.058 274.56 225.811 275.18 224.184 275.18ZM224.184 273.44C225.211 273.44 225.971 272.993 226.464 272.1C226.971 271.207 227.224 269.813 227.224 267.92C227.224 266.013 226.971 264.627 226.464 263.76C225.971 262.88 225.211 262.44 224.184 262.44C223.171 262.44 222.411 262.88 221.904 263.76C221.398 264.627 221.144 266.007 221.144 267.9C221.144 269.807 221.398 271.207 221.904 272.1C222.424 272.993 223.184 273.44 224.184 273.44ZM236.777 275.18C235.15 275.18 233.897 274.56 233.017 273.32C232.15 272.067 231.717 270.273 231.717 267.94C231.717 265.567 232.15 263.773 233.017 262.56C233.897 261.333 235.15 260.72 236.777 260.72C238.417 260.72 239.67 261.333 240.537 262.56C241.403 263.773 241.837 265.56 241.837 267.92C241.837 270.267 241.397 272.067 240.517 273.32C239.65 274.56 238.403 275.18 236.777 275.18ZM236.777 273.44C237.803 273.44 238.563 272.993 239.057 272.1C239.563 271.207 239.817 269.813 239.817 267.92C239.817 266.013 239.563 264.627 239.057 263.76C238.563 262.88 237.803 262.44 236.777 262.44C235.763 262.44 235.003 262.88 234.497 263.76C233.99 264.627 233.737 266.007 233.737 267.9C233.737 269.807 233.99 271.207 234.497 272.1C235.017 272.993 235.777 273.44 236.777 273.44Z" fill="#0C5EED"/>
<circle cx="222.5" cy="277.5" r="67" stroke="#0C5EED"/>
<path d="M26.7987 307V299.972H30.1867C30.9987 299.972 31.6054 300.131 32.0067 300.448C32.4174 300.756 32.6227 301.213 32.6227 301.82C32.6227 302.268 32.464 302.646 32.1467 302.954C31.8387 303.253 31.4374 303.43 30.9427 303.486V303.318C31.5214 303.337 31.9834 303.505 32.3287 303.822C32.674 304.139 32.8467 304.55 32.8467 305.054C32.8467 305.661 32.6227 306.137 32.1747 306.482C31.736 306.827 31.1107 307 30.2987 307H26.7987ZM27.8767 306.23H30.2427C30.7374 306.23 31.1154 306.127 31.3767 305.922C31.6474 305.707 31.7827 305.404 31.7827 305.012C31.7827 304.62 31.6474 304.321 31.3767 304.116C31.1154 303.911 30.7374 303.808 30.2427 303.808H27.8767V306.23ZM27.8767 303.038H30.1167C30.574 303.038 30.9287 302.935 31.1807 302.73C31.4327 302.525 31.5587 302.24 31.5587 301.876C31.5587 301.512 31.4327 301.232 31.1807 301.036C30.9287 300.831 30.574 300.728 30.1167 300.728H27.8767V303.038ZM34.6054 307V299.972H35.7394V302.492H37.8534C38.7587 302.492 39.44 302.688 39.8974 303.08C40.364 303.463 40.5974 304.009 40.5974 304.718C40.5974 305.194 40.49 305.605 40.2754 305.95C40.07 306.286 39.762 306.547 39.3514 306.734C38.95 306.911 38.4507 307 37.8534 307H34.6054ZM35.7394 306.188H37.7554C38.3247 306.188 38.7587 306.071 39.0574 305.838C39.356 305.595 39.5054 305.227 39.5054 304.732C39.5054 304.237 39.356 303.878 39.0574 303.654C38.768 303.421 38.334 303.304 37.7554 303.304H35.7394V306.188ZM41.6614 307V299.972H42.7814V307H41.6614ZM45.0233 307V299.972H46.0593V305.95H45.6813L50.1613 299.972H51.1133V307H50.0913V301.008H50.4693L45.9893 307H45.0233ZM53.3495 307V299.972H58.2495V300.882H54.4835V307H53.3495ZM59.6399 310.024V301.596C59.6399 301.335 59.6259 301.069 59.5979 300.798C59.5792 300.518 59.5559 300.243 59.5279 299.972H60.6199L60.7739 301.638H60.6059C60.7552 301.087 61.0585 300.653 61.5159 300.336C61.9732 300.009 62.5192 299.846 63.1539 299.846C63.7885 299.846 64.3345 299.991 64.7919 300.28C65.2585 300.569 65.6225 300.985 65.8839 301.526C66.1452 302.067 66.2759 302.721 66.2759 303.486C66.2759 304.242 66.1452 304.891 65.8839 305.432C65.6319 305.973 65.2725 306.393 64.8059 306.692C64.3392 306.981 63.7885 307.126 63.1539 307.126C62.5285 307.126 61.9872 306.967 61.5299 306.65C61.0725 306.333 60.7692 305.899 60.6199 305.348H60.7739V310.024H59.6399ZM62.9299 306.202C63.6019 306.202 64.1339 305.973 64.5259 305.516C64.9272 305.049 65.1279 304.373 65.1279 303.486C65.1279 302.59 64.9272 301.913 64.5259 301.456C64.1339 300.989 63.6019 300.756 62.9299 300.756C62.2672 300.756 61.7352 300.989 61.3339 301.456C60.9419 301.913 60.7459 302.59 60.7459 303.486C60.7459 304.373 60.9419 305.049 61.3339 305.516C61.7352 305.973 62.2672 306.202 62.9299 306.202ZM70.8588 307.126C70.2335 307.126 69.6875 306.981 69.2208 306.692C68.7541 306.393 68.3901 305.973 68.1288 305.432C67.8768 304.891 67.7508 304.242 67.7508 303.486C67.7508 302.721 67.8768 302.067 68.1288 301.526C68.3901 300.985 68.7541 300.569 69.2208 300.28C69.6875 299.991 70.2335 299.846 70.8588 299.846C71.4935 299.846 72.0395 300.009 72.4968 300.336C72.9635 300.653 73.2715 301.087 73.4208 301.638H73.2528L73.4068 299.972H74.4988C74.4708 300.243 74.4428 300.518 74.4148 300.798C74.3961 301.069 74.3868 301.335 74.3868 301.596V307H73.2528V305.348H73.4068C73.2575 305.899 72.9495 306.333 72.4828 306.65C72.0161 306.967 71.4748 307.126 70.8588 307.126ZM71.0828 306.202C71.7548 306.202 72.2868 305.973 72.6788 305.516C73.0708 305.049 73.2668 304.373 73.2668 303.486C73.2668 302.59 73.0708 301.913 72.6788 301.456C72.2868 300.989 71.7548 300.756 71.0828 300.756C70.4201 300.756 69.8881 300.989 69.4868 301.456C69.0948 301.913 68.8988 302.59 68.8988 303.486C68.8988 304.373 69.0948 305.049 69.4868 305.516C69.8881 305.973 70.4201 306.202 71.0828 306.202ZM76.6737 307V299.972H77.8077V302.912H81.6717V299.972H82.8057V307H81.6717V303.822H77.8077V307H76.6737ZM85.0409 307V299.972H86.1749V302.912H90.0389V299.972H91.1729V307H90.0389V303.822H86.1749V307H85.0409ZM93.4081 307V299.972H94.5421V302.492H96.6561C97.5614 302.492 98.2428 302.688 98.7001 303.08C99.1668 303.463 99.4001 304.009 99.4001 304.718C99.4001 305.194 99.2928 305.605 99.0781 305.95C98.8728 306.286 98.5648 306.547 98.1541 306.734C97.7528 306.911 97.2534 307 96.6561 307H93.4081ZM94.5421 306.188H96.5581C97.1274 306.188 97.5614 306.071 97.8601 305.838C98.1588 305.595 98.3081 305.227 98.3081 304.732C98.3081 304.237 98.1588 303.878 97.8601 303.654C97.5708 303.421 97.1368 303.304 96.5581 303.304H94.5421V306.188ZM100.464 307V299.972H101.584V307H100.464ZM102.93 307L106.08 303.094V303.654L103.098 299.972H104.47L106.724 302.842H106.318L108.558 299.972H109.916L106.976 303.64V303.122L110.098 307H108.712L106.304 303.934H106.724L104.288 307H102.93ZM56.1348 329.82V327.104H56.8768C57.2128 326.628 57.4555 326.059 57.6048 325.396C57.7542 324.733 57.8288 323.949 57.8288 323.044V320.972H62.7708V327.104H63.8768V329.82H62.8968V328H57.1008V329.82H56.1348ZM57.9688 327.118H61.6928V321.854H58.8228V323.226C58.8228 323.963 58.7482 324.677 58.5988 325.368C58.4588 326.049 58.2488 326.633 57.9688 327.118ZM68.5724 328.126C67.4711 328.126 66.6031 327.809 65.9684 327.174C65.3337 326.53 65.0164 325.639 65.0164 324.5C65.0164 323.763 65.1564 323.123 65.4364 322.582C65.7164 322.031 66.1084 321.607 66.6124 321.308C67.1164 321 67.6951 320.846 68.3484 320.846C68.9924 320.846 69.5337 320.981 69.9724 321.252C70.4111 321.523 70.7471 321.91 70.9804 322.414C71.2137 322.909 71.3304 323.497 71.3304 324.178V324.598H65.8844V323.884H70.5884L70.3504 324.066C70.3504 323.319 70.1824 322.736 69.8464 322.316C69.5104 321.896 69.0111 321.686 68.3484 321.686C67.6484 321.686 67.1024 321.933 66.7104 322.428C66.3184 322.913 66.1224 323.571 66.1224 324.402V324.528C66.1224 325.405 66.3371 326.073 66.7664 326.53C67.2051 326.978 67.8164 327.202 68.6004 327.202C69.0204 327.202 69.4124 327.141 69.7764 327.02C70.1497 326.889 70.5044 326.679 70.8404 326.39L71.2324 327.188C70.9244 327.487 70.5324 327.72 70.0564 327.888C69.5897 328.047 69.0951 328.126 68.5724 328.126ZM72.7684 328.154L72.3484 327.272C72.675 327.123 72.9457 326.941 73.1604 326.726C73.3844 326.502 73.5617 326.222 73.6924 325.886C73.823 325.541 73.9164 325.116 73.9724 324.612C74.0284 324.099 74.0564 323.483 74.0564 322.764V320.972H79.1244V328H78.0044V321.868H75.1064V322.806C75.1064 323.907 75.027 324.813 74.8684 325.522C74.719 326.231 74.4717 326.796 74.1264 327.216C73.7904 327.627 73.3377 327.939 72.7684 328.154Z" fill="#686C77"/>
<path d="M54 284.18C53.2533 284.18 52.5067 284.033 51.76 283.74C51.0133 283.433 50.3867 283.033 49.88 282.54L50.62 280.96C51.1133 281.44 51.6533 281.807 52.24 282.06C52.8267 282.3 53.42 282.42 54.02 282.42C55.3 282.42 56.28 281.973 56.96 281.08C57.6533 280.173 58 278.827 58 277.04V275.34H58.2C58.12 276.047 57.8933 276.667 57.52 277.2C57.1467 277.733 56.6733 278.14 56.1 278.42C55.54 278.7 54.9067 278.84 54.2 278.84C53.3733 278.84 52.6267 278.647 51.96 278.26C51.3067 277.873 50.7933 277.34 50.42 276.66C50.06 275.98 49.88 275.213 49.88 274.36C49.88 273.453 50.08 272.653 50.48 271.96C50.88 271.253 51.4267 270.707 52.12 270.32C52.8133 269.92 53.6133 269.72 54.52 269.72C56.28 269.72 57.6267 270.327 58.56 271.54C59.5067 272.74 59.98 274.44 59.98 276.64C59.98 278.253 59.74 279.62 59.26 280.74C58.7933 281.86 58.1133 282.713 57.22 283.3C56.3267 283.887 55.2533 284.18 54 284.18ZM54.66 277.14C55.22 277.14 55.7133 277.02 56.14 276.78C56.5667 276.54 56.9 276.207 57.14 275.78C57.38 275.34 57.5 274.84 57.5 274.28C57.5 273.707 57.38 273.207 57.14 272.78C56.9 272.34 56.5667 272 56.14 271.76C55.7133 271.507 55.22 271.38 54.66 271.38C54.1 271.38 53.6067 271.507 53.18 271.76C52.7667 272 52.44 272.34 52.2 272.78C51.96 273.207 51.84 273.707 51.84 274.28C51.84 274.84 51.96 275.34 52.2 275.78C52.44 276.207 52.7667 276.54 53.18 276.78C53.6067 277.02 54.1 277.14 54.66 277.14ZM68.0722 284.18C66.3255 284.18 64.9789 283.573 64.0322 282.36C63.0989 281.147 62.6322 279.447 62.6322 277.26C62.6322 275.633 62.8722 274.267 63.3522 273.16C63.8322 272.04 64.5122 271.187 65.3922 270.6C66.2855 270.013 67.3589 269.72 68.6122 269.72C69.3589 269.72 70.1055 269.867 70.8522 270.16C71.5989 270.44 72.2255 270.84 72.7322 271.36L71.9922 272.92C71.4989 272.44 70.9589 272.08 70.3722 271.84C69.7855 271.6 69.1922 271.48 68.5922 271.48C67.2989 271.48 66.3122 271.933 65.6322 272.84C64.9522 273.733 64.6122 275.073 64.6122 276.86V278.56H64.4122C64.5055 277.84 64.7322 277.22 65.0922 276.7C65.4522 276.167 65.9189 275.76 66.4922 275.48C67.0655 275.2 67.7055 275.06 68.4122 275.06C69.2522 275.06 69.9922 275.253 70.6322 275.64C71.2855 276.027 71.7989 276.56 72.1722 277.24C72.5455 277.907 72.7322 278.673 72.7322 279.54C72.7322 280.433 72.5322 281.233 72.1322 281.94C71.7322 282.647 71.1789 283.2 70.4722 283.6C69.7789 283.987 68.9789 284.18 68.0722 284.18ZM67.9522 282.5C68.5122 282.5 68.9989 282.38 69.4122 282.14C69.8389 281.9 70.1722 281.567 70.4122 281.14C70.6522 280.7 70.7722 280.193 70.7722 279.62C70.7722 279.047 70.6522 278.547 70.4122 278.12C70.1722 277.693 69.8389 277.36 69.4122 277.12C68.9989 276.867 68.5122 276.74 67.9522 276.74C67.3922 276.74 66.8989 276.867 66.4722 277.12C66.0455 277.36 65.7122 277.693 65.4722 278.12C65.2322 278.547 65.1122 279.047 65.1122 279.62C65.1122 280.193 65.2322 280.7 65.4722 281.14C65.7122 281.567 66.0455 281.9 66.4722 282.14C66.8989 282.38 67.3922 282.5 67.9522 282.5ZM80.0444 284.18C79.0844 284.18 78.1644 284.04 77.2844 283.76C76.4044 283.467 75.671 283.053 75.0844 282.52L75.8044 280.94C76.4577 281.447 77.1244 281.82 77.8044 282.06C78.4844 282.3 79.211 282.42 79.9844 282.42C80.971 282.42 81.7177 282.213 82.2244 281.8C82.7444 281.387 83.0044 280.793 83.0044 280.02C83.0044 279.26 82.7444 278.687 82.2244 278.3C81.7177 277.9 80.9644 277.7 79.9644 277.7H77.7844V276.02H79.8044C80.6577 276.02 81.3377 275.807 81.8444 275.38C82.351 274.94 82.6044 274.347 82.6044 273.6C82.6044 272.92 82.371 272.4 81.9044 272.04C81.4377 271.667 80.771 271.48 79.9044 271.48C78.4377 271.48 77.151 271.993 76.0444 273.02L75.3444 271.44C75.891 270.893 76.5844 270.473 77.4244 270.18C78.2644 269.873 79.1444 269.72 80.0644 269.72C81.4777 269.72 82.591 270.047 83.4044 270.7C84.2177 271.34 84.6244 272.233 84.6244 273.38C84.6244 274.247 84.3777 274.987 83.8844 275.6C83.4044 276.213 82.7444 276.62 81.9044 276.82V276.6C82.9044 276.76 83.671 277.16 84.2044 277.8C84.751 278.427 85.0244 279.213 85.0244 280.16C85.0244 281.413 84.5777 282.4 83.6844 283.12C82.8044 283.827 81.591 284.18 80.0444 284.18Z" fill="#0C5EED"/>
<circle cx="67.5" cy="297.5" r="67" stroke="#0C5EED"/>
<path d="M156.394 475.126C155.703 475.126 155.101 474.977 154.588 474.678C154.084 474.379 153.692 473.955 153.412 473.404C153.141 472.853 153.006 472.2 153.006 471.444C153.006 470.679 153.146 470.03 153.426 469.498C153.706 468.957 154.098 468.546 154.602 468.266C155.115 467.986 155.712 467.846 156.394 467.846C156.842 467.846 157.276 467.925 157.696 468.084C158.125 468.243 158.48 468.467 158.76 468.756L158.354 469.568C158.074 469.297 157.766 469.097 157.43 468.966C157.103 468.835 156.781 468.77 156.464 468.77C155.736 468.77 155.171 468.999 154.77 469.456C154.368 469.913 154.168 470.581 154.168 471.458C154.168 472.326 154.368 472.998 154.77 473.474C155.171 473.95 155.736 474.188 156.464 474.188C156.772 474.188 157.089 474.127 157.416 474.006C157.752 473.885 158.064 473.684 158.354 473.404L158.76 474.202C158.47 474.501 158.111 474.729 157.682 474.888C157.252 475.047 156.823 475.126 156.394 475.126ZM160.452 475V467.972H166.542V475H165.408V468.868H161.586V475H160.452ZM171.956 475.126C170.855 475.126 169.987 474.809 169.352 474.174C168.718 473.53 168.4 472.639 168.4 471.5C168.4 470.763 168.54 470.123 168.82 469.582C169.1 469.031 169.492 468.607 169.996 468.308C170.5 468 171.079 467.846 171.732 467.846C172.376 467.846 172.918 467.981 173.356 468.252C173.795 468.523 174.131 468.91 174.364 469.414C174.598 469.909 174.714 470.497 174.714 471.178V471.598H169.268V470.884H173.972L173.734 471.066C173.734 470.319 173.566 469.736 173.23 469.316C172.894 468.896 172.395 468.686 171.732 468.686C171.032 468.686 170.486 468.933 170.094 469.428C169.702 469.913 169.506 470.571 169.506 471.402V471.528C169.506 472.405 169.721 473.073 170.15 473.53C170.589 473.978 171.2 474.202 171.984 474.202C172.404 474.202 172.796 474.141 173.16 474.02C173.534 473.889 173.888 473.679 174.224 473.39L174.616 474.188C174.308 474.487 173.916 474.72 173.44 474.888C172.974 475.047 172.479 475.126 171.956 475.126ZM182.606 476.82V475H176.53V467.972H177.664V474.104H181.346V467.972H182.452V474.104H183.572V476.82H182.606ZM185.089 475V467.972H186.125V473.95H185.747L190.227 467.972H191.179V475H190.157V469.008H190.535L186.055 475H185.089ZM196.145 475.126C195.52 475.126 194.974 474.981 194.507 474.692C194.04 474.393 193.676 473.973 193.415 473.432C193.163 472.891 193.037 472.242 193.037 471.486C193.037 470.721 193.163 470.067 193.415 469.526C193.676 468.985 194.04 468.569 194.507 468.28C194.974 467.991 195.52 467.846 196.145 467.846C196.78 467.846 197.326 468.009 197.783 468.336C198.25 468.653 198.558 469.087 198.707 469.638H198.539L198.693 467.972H199.785C199.757 468.243 199.729 468.518 199.701 468.798C199.682 469.069 199.673 469.335 199.673 469.596V475H198.539V473.348H198.693C198.544 473.899 198.236 474.333 197.769 474.65C197.302 474.967 196.761 475.126 196.145 475.126ZM196.369 474.202C197.041 474.202 197.573 473.973 197.965 473.516C198.357 473.049 198.553 472.373 198.553 471.486C198.553 470.59 198.357 469.913 197.965 469.456C197.573 468.989 197.041 468.756 196.369 468.756C195.706 468.756 195.174 468.989 194.773 469.456C194.381 469.913 194.185 470.59 194.185 471.486C194.185 472.373 194.381 473.049 194.773 473.516C195.174 473.973 195.706 474.202 196.369 474.202ZM201.582 475.154L201.162 474.272C201.489 474.123 201.759 473.941 201.974 473.726C202.198 473.502 202.375 473.222 202.506 472.886C202.637 472.541 202.73 472.116 202.786 471.612C202.842 471.099 202.87 470.483 202.87 469.764V467.972H207.938V475H206.818V468.868H203.92V469.806C203.92 470.907 203.841 471.813 203.682 472.522C203.533 473.231 203.285 473.796 202.94 474.216C202.604 474.627 202.151 474.939 201.582 475.154ZM210.177 475V467.972H211.213V473.95H210.835L215.315 467.972H216.267V475H215.245V469.008H215.623L211.143 475H210.177ZM221.513 475.126C220.822 475.126 220.22 474.977 219.707 474.678C219.203 474.379 218.811 473.955 218.531 473.404C218.26 472.853 218.125 472.2 218.125 471.444C218.125 470.679 218.265 470.03 218.545 469.498C218.825 468.957 219.217 468.546 219.721 468.266C220.234 467.986 220.831 467.846 221.513 467.846C221.961 467.846 222.395 467.925 222.815 468.084C223.244 468.243 223.599 468.467 223.879 468.756L223.473 469.568C223.193 469.297 222.885 469.097 222.549 468.966C222.222 468.835 221.9 468.77 221.583 468.77C220.855 468.77 220.29 468.999 219.889 469.456C219.487 469.913 219.287 470.581 219.287 471.458C219.287 472.326 219.487 472.998 219.889 473.474C220.29 473.95 220.855 474.188 221.583 474.188C221.891 474.188 222.208 474.127 222.535 474.006C222.871 473.885 223.183 473.684 223.473 473.404L223.879 474.202C223.589 474.501 223.23 474.729 222.801 474.888C222.371 475.047 221.942 475.126 221.513 475.126ZM227.069 475V468.882H224.521V467.972H230.765V468.882H228.203V475H227.069ZM234.855 475.126C234.183 475.126 233.595 474.981 233.091 474.692C232.596 474.393 232.214 473.973 231.943 473.432C231.672 472.881 231.537 472.233 231.537 471.486C231.537 470.73 231.672 470.081 231.943 469.54C232.214 468.999 232.596 468.583 233.091 468.294C233.595 467.995 234.183 467.846 234.855 467.846C235.536 467.846 236.124 467.995 236.619 468.294C237.123 468.583 237.51 468.999 237.781 469.54C238.061 470.081 238.201 470.73 238.201 471.486C238.201 472.233 238.061 472.881 237.781 473.432C237.51 473.973 237.123 474.393 236.619 474.692C236.124 474.981 235.536 475.126 234.855 475.126ZM234.855 474.202C235.527 474.202 236.059 473.973 236.451 473.516C236.843 473.049 237.039 472.373 237.039 471.486C237.039 470.59 236.838 469.913 236.437 469.456C236.045 468.989 235.518 468.756 234.855 468.756C234.192 468.756 233.665 468.989 233.273 469.456C232.881 469.913 232.685 470.59 232.685 471.486C232.685 472.373 232.881 473.049 233.273 473.516C233.665 473.973 234.192 474.202 234.855 474.202ZM240.05 475V467.972H243.438C244.25 467.972 244.856 468.131 245.258 468.448C245.668 468.756 245.874 469.213 245.874 469.82C245.874 470.268 245.715 470.646 245.398 470.954C245.09 471.253 244.688 471.43 244.194 471.486V471.318C244.772 471.337 245.234 471.505 245.58 471.822C245.925 472.139 246.098 472.55 246.098 473.054C246.098 473.661 245.874 474.137 245.426 474.482C244.987 474.827 244.362 475 243.55 475H240.05ZM241.128 474.23H243.494C243.988 474.23 244.366 474.127 244.628 473.922C244.898 473.707 245.034 473.404 245.034 473.012C245.034 472.62 244.898 472.321 244.628 472.116C244.366 471.911 243.988 471.808 243.494 471.808H241.128V474.23ZM241.128 471.038H243.368C243.825 471.038 244.18 470.935 244.432 470.73C244.684 470.525 244.81 470.24 244.81 469.876C244.81 469.512 244.684 469.232 244.432 469.036C244.18 468.831 243.825 468.728 243.368 468.728H241.128V471.038Z" fill="#686C77"/>
<path d="M177.4 452V450.26H180.68V439.66H181.72L177.72 442.1V440.1L181.26 437.9H182.76V450.26H185.84V452H177.4ZM193.592 452.18C191.966 452.18 190.712 451.56 189.832 450.32C188.966 449.067 188.532 447.273 188.532 444.94C188.532 442.567 188.966 440.773 189.832 439.56C190.712 438.333 191.966 437.72 193.592 437.72C195.232 437.72 196.486 438.333 197.352 439.56C198.219 440.773 198.652 442.56 198.652 444.92C198.652 447.267 198.212 449.067 197.332 450.32C196.466 451.56 195.219 452.18 193.592 452.18ZM193.592 450.44C194.619 450.44 195.379 449.993 195.872 449.1C196.379 448.207 196.632 446.813 196.632 444.92C196.632 443.013 196.379 441.627 195.872 440.76C195.379 439.88 194.619 439.44 193.592 439.44C192.579 439.44 191.819 439.88 191.312 440.76C190.806 441.627 190.552 443.007 190.552 444.9C190.552 446.807 190.806 448.207 191.312 449.1C191.832 449.993 192.592 450.44 193.592 450.44ZM206.184 452.18C204.558 452.18 203.304 451.56 202.424 450.32C201.558 449.067 201.124 447.273 201.124 444.94C201.124 442.567 201.558 440.773 202.424 439.56C203.304 438.333 204.558 437.72 206.184 437.72C207.824 437.72 209.078 438.333 209.944 439.56C210.811 440.773 211.244 442.56 211.244 444.92C211.244 447.267 210.804 449.067 209.924 450.32C209.058 451.56 207.811 452.18 206.184 452.18ZM206.184 450.44C207.211 450.44 207.971 449.993 208.464 449.1C208.971 448.207 209.224 446.813 209.224 444.92C209.224 443.013 208.971 441.627 208.464 440.76C207.971 439.88 207.211 439.44 206.184 439.44C205.171 439.44 204.411 439.88 203.904 440.76C203.398 441.627 203.144 443.007 203.144 444.9C203.144 446.807 203.398 448.207 203.904 449.1C204.424 449.993 205.184 450.44 206.184 450.44ZM218.777 452.18C217.15 452.18 215.897 451.56 215.017 450.32C214.15 449.067 213.717 447.273 213.717 444.94C213.717 442.567 214.15 440.773 215.017 439.56C215.897 438.333 217.15 437.72 218.777 437.72C220.417 437.72 221.67 438.333 222.537 439.56C223.403 440.773 223.837 442.56 223.837 444.92C223.837 447.267 223.397 449.067 222.517 450.32C221.65 451.56 220.403 452.18 218.777 452.18ZM218.777 450.44C219.803 450.44 220.563 449.993 221.057 449.1C221.563 448.207 221.817 446.813 221.817 444.92C221.817 443.013 221.563 441.627 221.057 440.76C220.563 439.88 219.803 439.44 218.777 439.44C217.763 439.44 217.003 439.88 216.497 440.76C215.99 441.627 215.737 443.007 215.737 444.9C215.737 446.807 215.99 448.207 216.497 449.1C217.017 449.993 217.777 450.44 218.777 450.44Z" fill="#0C5EED"/>
<circle cx="200" cy="455" r="89.5" stroke="#0C5EED"/>
</svg>
